SplineFontDB: 3.2
FontName: MFEKSans-Regular
FullName: MFEK Sans Regular
FamilyName: MFEK Sans
Weight: Regular
Copyright: 
Version: 0.1
ItalicAngle: -13
UnderlinePosition: -200
UnderlineWidth: 100
Ascent: 1600
Descent: 400
InvalidEm: 0
LayerCount: 2
Layer: 0 0 "Back" 1
Layer: 1 0 "Fore" 0
XUID: [1021 31 -699969567 16487490]
FSType: 0
OS2Version: 0
OS2_WeightWidthSlopeOnly: 0
OS2_UseTypoMetrics: 1
CreationTime: 1460762150
ModificationTime: 1696364705
PfmFamily: 33
TTFWeight: 400
TTFWidth: 1
LineGap: 0
VLineGap: 0
OS2TypoAscent: 2500
OS2TypoAOffset: 0
OS2TypoDescent: -850
OS2TypoDOffset: 0
OS2TypoLinegap: 0
OS2WinAscent: 2500
OS2WinAOffset: 0
OS2WinDescent: 850
OS2WinDOffset: 0
HheadAscent: 2500
HheadAOffset: 0
HheadDescent: -850
HheadDOffset: 0
OS2CapHeight: 1500
OS2XHeight: 1040
OS2FamilyClass: 2053
OS2Vendor: 'it* '
OS2UnicodeRanges: 00000001.00000000.00000000.00000000
Lookup: 258 0 0 "kerning yeah boi" { "say cheese" [300,0,4] } ['kern' ('DFLT' <'dflt' > 'grek' <'dflt' > 'latn' <'dflt' > ) ]
MarkAttachClasses: 1
DEI: 91125
KernClass2: 30 23 "say cheese"
 73 A Agrave Aacute Acircumflex Atilde Adieresis Aring Amacron Abreve Aogonek
 96 D O Ograve Oacute Ocircumflex Otilde Odieresis Oslash Dcaron Dcroat Omacron Obreve Ohungarumlaut
 81 E AE Egrave Eacute Ecircumflex Edieresis Emacron Ebreve Edotaccent Eogonek Ecaron
 1 F
 39 G Gcircumflex Gbreve Gdotaccent uni0122
 104 J U Ugrave Uacute Ucircumflex Udieresis IJ Jcircumflex Utilde Umacron Ubreve Uring Uhungarumlaut Uogonek
 11 K X uni0136
 23 L Lacute uni013B Lslash
 1 P
 1 Q
 23 R Racute uni0156 Rcaron
 36 S Sacute Scircumflex Scedilla Scaron
 21 T uni0162 Tcaron Tbar
 1 V
 53 W Wcircumflex Wgrave Wacute Wdieresis uni1E86 uni1E88
 30 Y Ycircumflex Ydieresis Ygrave
 26 Z Zacute Zdotaccent Zcaron
 73 a agrave aacute acircumflex atilde adieresis aring amacron abreve aogonek

StartChar: ampersand
Encoding: 38 38 0
Width: 616
VWidth: 1920
Flags: HMW
LayerCount: 2
Fore
SplineSet
345 5 m 2
 309 1036 l 2
 304 1126 301 1178 316 1243 c 0
 337 1332 416 1417 546 1417 c 0
 678 1417 722 1336 698 1230 c 0
 666 1092 531 994 373 930 c 0
 241 877 206 819 179 703 c 0
 170 663 166 602 171 535 c 2
 181 266 l 2
 185 156 182 90 231 90 c 0
 321 90 485 409 553 643 c 0
 554 646 557 647 560 647 c 2
 627 647 l 2
 631 647 632 645 631 641 c 0
 544 357 327 -16 175 -16 c 0
 73 -16 64 75 57 246 c 2
 48 480 l 2
 41 568 43 638 57 697 c 0
 92 847 207 932 353 994 c 0
 502 1058 574 1123 597 1222 c 0
 614 1296 598 1340 532 1340 c 0
 479 1340 444 1299 430 1239 c 0
 417 1183 417 1140 419 1107 c 2
 464 5 l 2
 465 2 465 0 461 0 c 2
 352 0 l 2
 348 0 346 2 345 5 c 2
EndSplineSet
EndChar

StartChar: period
Encoding: 46 46 1
Width: 290
VWidth: 1920
Flags: HMW
LayerCount: 2
Fore
SplineSet
77 0 m 2
 -26 0 l 2
 -33 0 -36 3 -34 10 c 2
 15 219 l 2
 17 226 20 229 27 229 c 2
 130 229 l 2
 137 229 140 226 138 219 c 2
 89 10 l 2
 87 3 84 0 77 0 c 2
EndSplineSet
EndChar

StartChar: zero
Encoding: 48 48 2
Width: 448
VWidth: 1920
Flags: HMW
LayerCount: 2
Fore
SplineSet
-17 244 m 2
 194 1155 l 2
 232 1318 283 1417 431 1417 c 0
 579 1417 587 1318 549 1155 c 2
 338 244 l 2
 300 81 248 -18 100 -18 c 0
 -48 -18 -55 81 -17 244 c 2
100 254 m 2
 73 136 56 64 119 64 c 0
 182 64 200 136 227 254 c 2
 432 1145 l 2
 459 1263 475 1334 412 1334 c 0
 349 1334 332 1263 305 1145 c 2
 100 254 l 2
EndSplineSet
EndChar

StartChar: one
Encoding: 49 49 3
Width: 302
VWidth: 1920
Flags: HMW
LayerCount: 2
Fore
SplineSet
297 1372 m 0
 329 1373 349 1388 361 1420 c 0
 363 1424 365 1425 368 1425 c 2
 412 1425 l 2
 416 1425 417 1424 416 1420 c 2
 89 5 l 2
 88 1 87 0 83 0 c 2
 -20 0 l 2
 -24 0 -26 1 -25 5 c 2
 290 1368 l 2
 291 1371 293 1372 297 1372 c 0
EndSplineSet
EndChar

StartChar: two
Encoding: 50 50 4
Width: 418
VWidth: 1920
Flags: HMW
LayerCount: 2
Fore
SplineSet
-56 118 m 2
 29 485 296 658 366 963 c 2
 407 1141 l 2
 436 1267 448 1329 398 1329 c 0
 352 1329 330 1264 302 1143 c 2
 227 817 l 2
 226 813 225 812 221 812 c 2
 122 812 l 2
 118 812 117 813 118 817 c 2
 192 1139 l 2
 233 1318 286 1417 419 1417 c 0
 551 1417 561 1336 515 1137 c 2
 485 1004 l 2
 401 640 140 464 71 164 c 2
 56 98 l 1
 288 98 l 2
 292 98 292 96 291 92 c 2
 271 5 l 2
 270 1 269 0 265 0 c 2
 -78 0 l 2
 -82 0 -83 1 -82 5 c 2
 -56 118 l 2
EndSplineSet
EndChar

StartChar: three
Encoding: 51 51 5
Width: 464
VWidth: 1920
Flags: HMW
LayerCount: 2
Fore
SplineSet
18 413 m 2
 121 413 l 2
 125 413 126 411 125 407 c 2
 72 176 l 2
 58 116 61 70 125 70 c 0
 193 70 220 122 235 187 c 2
 322 562 l 2
 336 624 324 664 254 664 c 2
 214 664 l 2
 210 664 209 665 210 669 c 2
 228 746 l 2
 229 750 230 751 234 751 c 2
 264 751 l 2
 329 751 352 794 365 852 c 2
 452 1232 l 2
 465 1288 466 1328 412 1328 c 0
 352 1328 338 1280 323 1216 c 2
 263 957 l 2
 262 953 260 952 256 952 c 2
 157 952 l 2
 153 952 153 953 154 957 c 2
 215 1220 l 2
 242 1337 301 1417 435 1417 c 0
 569 1417 596 1349 569 1234 c 2
 486 875 l 2
 456 745 390 700 256 700 c 1
 271 725 l 1
 405 725 463 676 433 545 c 2
 350 185 l 2
 321 59 251 -18 97 -18 c 0
 -33 -18 -69 55 -42 173 c 2
 12 407 l 2
 13 411 14 413 18 413 c 2
EndSplineSet
EndChar

StartChar: four
Encoding: 52 52 6
Width: 461
VWidth: 1920
Flags: HMW
LayerCount: 2
Fore
SplineSet
432 451 m 2
 414 374 l 2
 413 370 412 369 408 369 c 2
 318 369 l 1
 234 5 l 2
 233 1 232 0 228 0 c 2
 124 0 l 2
 120 0 119 1 120 5 c 2
 204 369 l 1
 -7 369 l 2
 -11 369 -12 370 -11 374 c 2
 10 462 l 2
 11 466 14 474 16 478 c 2
 471 1395 l 2
 473 1398 477 1400 481 1400 c 2
 551 1400 l 2
 555 1400 556 1399 555 1395 c 2
 338 456 l 1
 428 456 l 2
 432 456 433 455 432 451 c 2
229 456 m 1
 367 1052 l 1
 83 456 l 1
 229 456 l 1
EndSplineSet
EndChar

StartChar: five
Encoding: 53 53 7
Width: 425
VWidth: 1920
Flags: HMW
LayerCount: 2
Fore
SplineSet
21 364 m 2
 115 364 l 2
 118 364 120 363 119 360 c 0
 65 128 58 64 100 64 c 0
 142 64 182 166 219 326 c 2
 286 614 l 2
 333 818 338 848 307 848 c 0
 282 848 258 805 195 646 c 0
 193 641 189 640 186 640 c 2
 95 640 l 2
 91 640 90 642 92 646 c 2
 301 1395 l 2
 303 1398 304 1400 308 1400 c 2
 582 1400 l 2
 586 1400 586 1399 585 1395 c 2
 576 1357 l 2
 567 1319 550 1312 462 1312 c 2
 370 1312 l 1
 192 690 l 1
 184 690 l 1
 219 810 281 937 365 937 c 0
 441 937 455 855 397 603 c 2
 328 305 l 2
 275 77 206 -17 88 -17 c 0
 -26 -17 -52 51 15 359 c 0
 16 363 17 364 21 364 c 2
EndSplineSet
EndChar

StartChar: six
Encoding: 54 54 8
Width: 486
VWidth: 1920
Flags: HMW
LayerCount: 2
Fore
SplineSet
288 713 m 0
 241 713 206 681 185 588 c 2
 177 554 l 1
 156 602 l 1
 186 734 239 794 339 794 c 0
 460 794 475 712 442 570 c 2
 359 212 l 2
 325 66 268 -18 124 -18 c 0
 -50 -18 -43 84 -0 272 c 2
 196 1121 l 2
 242 1320 295 1417 440 1417 c 0
 586 1417 589 1321 557 1184 c 2
 503 949 l 2
 502 945 500 944 496 944 c 2
 403 944 l 2
 399 944 398 945 399 949 c 2
 453 1182 l 2
 471 1261 485 1328 425 1328 c 0
 366 1328 341 1267 307 1118 c 2
 100 221 l 2
 78 125 70 71 138 71 c 0
 212 71 225 127 246 218 c 2
 328 571 l 2
 349 664 352 713 288 713 c 0
EndSplineSet
EndChar

StartChar: seven
Encoding: 55 55 9
Width: 374
VWidth: 1920
Flags: HMW
LayerCount: 2
Fore
SplineSet
577 1395 m 2
 70 5 l 2
 67 1 65 0 61 0 c 2
 -37 0 l 2
 -41 0 -43 2 -40 5 c 2
 455 1302 l 1
 220 1302 l 2
 216 1302 216 1303 217 1307 c 2
 237 1395 l 2
 238 1399 238 1400 242 1400 c 2
 574 1400 l 2
 578 1400 580 1398 577 1395 c 2
EndSplineSet
EndChar

StartChar: eight
Encoding: 56 56 10
Width: 469
VWidth: 1920
Flags: HMW
LayerCount: 2
Fore
SplineSet
130 68 m 0
 191 68 203 108 219 177 c 2
 306 556 l 2
 322 626 329 665 268 665 c 0
 207 665 194 626 178 556 c 2
 91 177 l 2
 75 108 69 68 130 68 c 0
288 752 m 0
 322 752 351 789 366 852 c 2
 455 1238 l 2
 468 1296 455 1332 422 1332 c 0
 389 1332 359 1296 346 1238 c 2
 257 852 l 2
 242 789 254 752 288 752 c 0
296 721 m 1
 445 721 443 651 415 531 c 2
 334 180 l 2
 304 52 273 -18 110 -18 c 0
 -50 -18 -52 52 -22 180 c 2
 59 531 l 2
 87 651 119 721 265 721 c 1
 262 701 l 1
 141 704 121 763 148 879 c 2
 229 1232 l 2
 256 1349 301 1417 441 1417 c 0
 584 1417 593 1349 566 1232 c 2
 485 879 l 2
 458 763 417 704 291 701 c 1
 296 721 l 1
EndSplineSet
EndChar

StartChar: nine
Encoding: 57 57 11
Width: 469
VWidth: 1920
Flags: HMW
LayerCount: 2
Fore
SplineSet
273 686 m 0
 311 686 346 718 367 811 c 2
 375 845 l 1
 396 797 l 1
 366 665 314 605 222 605 c 0
 101 605 96 688 129 830 c 2
 211 1187 l 2
 245 1333 293 1417 437 1417 c 0
 611 1417 595 1315 552 1127 c 2
 356 278 l 2
 310 79 257 -18 112 -18 c 0
 -34 -18 -37 78 -5 215 c 2
 49 450 l 2
 50 454 51 455 55 455 c 2
 148 455 l 2
 152 455 153 454 152 450 c 2
 98 217 l 2
 80 138 66 71 127 71 c 0
 187 71 211 132 245 281 c 2
 452 1178 l 2
 474 1274 482 1328 423 1328 c 0
 358 1328 345 1272 324 1181 c 2
 242 828 l 2
 221 735 217 686 273 686 c 0
EndSplineSet
EndChar

StartChar: A
Encoding: 65 65 12
Width: 455
VWidth: 960
Flags: HMW
AnchorPoint: "ogonek" 255 0 basechar 0
AnchorPoint: "bottom" 102 0 basechar 0
AnchorPoint: "top" 425 1400 basechar 0
LayerCount: 2
Fore
SplineSet
105 498 m 1
 320 498 l 1
 301 417 l 1
 86 417 l 1
 105 498 l 1
384 1250 m 1
 -2 5 l 2
 -4 2 -6 0 -10 0 c 2
 -99 0 l 2
 -103 0 -103 2 -101 5 c 2
 352 1395 l 2
 354 1398 355 1400 359 1400 c 2
 493 1400 l 2
 497 1400 498 1398 498 1395 c 2
 319 5 l 2
 319 2 319 0 315 0 c 2
 205 0 l 2
 201 0 199 1 199 5 c 2
 384 1250 l 1
EndSplineSet
EndChar

StartChar: B
Encoding: 66 66 13
Width: 486
VWidth: 960
Flags: HMW
AnchorPoint: "top" 435 1400 basechar 0
AnchorPoint: "bottom" 112 0 basechar 0
LayerCount: 2
Fore
SplineSet
245 748 m 1
 297 748 l 2
 342 748 376 801 406 933 c 2
 453 1133 l 2
 483 1265 473 1312 427 1312 c 2
 375 1312 l 1
 245 748 l 1
308 725 m 1
 401 725 483 673 438 478 c 2
 386 250 l 2
 340 49 261 0 142 0 c 2
 -36 0 l 2
 -40 0 -41 1 -40 5 c 2
 281 1395 l 2
 282 1399 283 1400 287 1400 c 2
 455 1400 l 2
 574 1400 617 1342 574 1156 c 2
 524 942 l 2
 481 756 386 700 293 700 c 1
 308 725 l 1
283 667 m 2
 226 667 l 1
 92 88 l 1
 149 88 l 2
 216 88 242 136 273 272 c 2
 320 477 l 2
 353 622 351 667 283 667 c 2
EndSplineSet
EndChar

StartChar: C
Encoding: 67 67 14
Width: 500
VWidth: 960
Flags: HMW
AnchorPoint: "top" 455 1400 basechar 0
AnchorPoint: "bottom" 112 0 basechar 0
LayerCount: 2
Fore
SplineSet
468 603 m 0
 449 522 427 429 404 332 c 0
 348 96 265 -18 114 -18 c 0
 -58 -18 -43 127 10 358 c 2
 168 1042 l 2
 225 1290 299 1418 451 1418 c 0
 601 1418 629 1273 575 1092 c 4
 558.347036681 1036.18173406 516 924 463 866 c 0
 460.21875 862.956054688 461 862 457 862 c 2
 370 862 l 2
 366 862 364.017578125 862.384765625 366 866 c 0
 536 1176 513 1323 440 1323 c 0
 367 1323 330 1231 287 1046 c 2
 127 349 l 2
 89 183 70 77 144 77 c 0
 220 77 263 144 370 603 c 0
 371 607 372 608 376 608 c 2
 464 608 l 2
 468 608 469 607 468 603 c 0
EndSplineSet
EndChar

StartChar: D
Encoding: 68 68 15
Width: 506
VWidth: 960
Flags: HMW
AnchorPoint: "top" 430 1400 basechar 0
AnchorPoint: "bottom" 92 0 basechar 0
LayerCount: 2
Fore
SplineSet
110 0 m 6
 -36 0 l 6
 -40 0 -41 1 -40 5 c 6
 281 1395 l 6
 282 1399 283 1400 287 1400 c 6
 433 1400 l 6
 609 1400 634 1276 574 1018 c 6
 425 374 l 6
 365 116 306 0 110 0 c 6
132 88 m 6
 216 88 258 163 306 369 c 6
 457 1022 l 6
 505 1228 499 1312 415 1312 c 6
 375 1312 l 5
 92 88 l 5
 132 88 l 6
EndSplineSet
EndChar

StartChar: E
Encoding: 69 69 16
Width: 440
VWidth: 960
Flags: HMW
AnchorPoint: "ogonek" 230 0 basechar 0
AnchorPoint: "top" 445 1400 basechar 0
AnchorPoint: "bottom" 122 0 basechar 0
LayerCount: 2
Fore
SplineSet
245 748 m 5
 361 748 l 6
 365 748 366 747 365 743 c 6
 348 672 l 6
 347 668 346 667 342 667 c 6
 226 667 l 5
 92 88 l 5
 291 88 l 6
 295 88 296 86 295 82 c 6
 277 5 l 6
 276 1 275 0 271 0 c 6
 -36 0 l 6
 -40 0 -41 1 -40 5 c 6
 281 1395 l 6
 282 1399 283 1400 287 1400 c 6
 584 1400 l 6
 588 1400 589 1399 588 1395 c 6
 570 1318 l 6
 569 1314 568 1312 564 1312 c 6
 375 1312 l 5
 245 748 l 5
EndSplineSet
EndChar

StartChar: F
Encoding: 70 70 17
Width: 395
VWidth: 960
Flags: HMW
AnchorPoint: "top" 425 1400 basechar 0
AnchorPoint: "bottom" 102 0 basechar 0
LayerCount: 2
Fore
SplineSet
245 749 m 5
 366 749 l 6
 370 749 371 748 370 744 c 6
 353 672 l 6
 352 668 351 668 347 668 c 6
 226 668 l 5
 73 5 l 6
 72 1 72 0 68 0 c 6
 -36 0 l 6
 -40 0 -41 1 -40 5 c 6
 281 1395 l 6
 282 1399 283 1400 287 1400 c 6
 563 1400 l 6
 567 1400 568 1399 567 1395 c 6
 549 1318 l 6
 548 1314 547 1312 543 1312 c 6
 375 1312 l 5
 245 749 l 5
EndSplineSet
EndChar

StartChar: G
Encoding: 71 71 18
Width: 503
VWidth: 960
Flags: HMW
AnchorPoint: "top" 460 1400 basechar 0
AnchorPoint: "bottom" 138 0 basechar 0
LayerCount: 2
Fore
SplineSet
301 614 m 2
 316 682 l 2
 317 686 319 687 323 687 c 2
 486 687 l 2
 490 687 490 686 489 682 c 2
 333 5 l 2
 332 1 331 0 327 0 c 2
 273 0 l 2
 269 0 268 1 268 5 c 2
 294 228 l 1
 414 639 l 1
 297 175 271 -18 106 -18 c 4
 -50 -18 -52 93 15 383 c 2
 162 1018 l 2
 221 1273 291 1418 441 1418 c 0
 594 1418 613 1308 571 1120 c 0
 553 1040 531 948 514 867 c 0
 513 863 512 863 508 863 c 2
 423 863 l 2
 419 863 418 863 419 867 c 0
 504 1253 518 1333 437 1333 c 0
 357 1333 327 1216 282 1022 c 2
 133 378 l 2
 80 150 73 67 143 67 c 0
 211 67 264 183 381 637 c 1
 387 608 l 1
 304 608 l 2
 300 608 300 610 301 614 c 2
EndSplineSet
EndChar

StartChar: H
Encoding: 72 72 19
Width: 505
VWidth: 960
Flags: HMW
AnchorPoint: "top" 450 1400 basechar 0
AnchorPoint: "bottom" 128 0 basechar 0
LayerCount: 2
Fore
SplineSet
529 1400 m 2
 633 1400 l 2
 637 1400 638 1399 637 1395 c 2
 316 5 l 2
 315 1 314 0 310 0 c 2
 206 0 l 2
 202 0 201 1 202 5 c 2
 354 664 l 1
 217 664 l 1
 65 5 l 2
 64 1 63 0 59 0 c 2
 -45 0 l 2
 -49 0 -50 1 -49 5 c 2
 272 1395 l 18
 273 1399 274 1400 278 1400 c 10
 382 1400 l 18
 386 1400 387 1399 386 1395 c 10
 237 751 l 1
 374 751 l 1
 523 1395 l 2
 524 1399 525 1400 529 1400 c 2
EndSplineSet
EndChar

StartChar: I
Encoding: 73 73 20
Width: 280
VWidth: 960
Flags: HMW
AnchorPoint: "ogonek" 20 0 basechar 0
AnchorPoint: "top" 343 1400 basechar 0
AnchorPoint: "bottom" 20 0 basechar 0
LayerCount: 2
Fore
SplineSet
291 1400 m 14
 395 1400 l 22
 399 1400 400 1399 399 1395 c 14
 78 5 l 22
 77 1 76 0 72 0 c 14
 -32 0 l 22
 -36 0 -37 1 -36 5 c 14
 285 1395 l 22
 286 1399 287 1400 291 1400 c 14
EndSplineSet
EndChar

StartChar: J
Encoding: 74 74 21
Width: 408
VWidth: 960
Flags: HMW
AnchorPoint: "top" 467 1400 basechar 0
AnchorPoint: "bottom" 45 0 basechar 0
LayerCount: 2
Fore
SplineSet
413 1400 m 2
 522 1400 l 2
 526 1400 528 1399 527 1395 c 2
 267 269 l 2
 219 59 179 -18 50 -18 c 0
 -62 -18 -100.379336341 65.3439365828 -31 239 c 6
 136 657 l 2
 137 661 139 663 143 663 c 2
 179 663 l 2
 183 663 185 661 184 657 c 2
 58 244 l 2
 15.2017993832 103.717009089 30 74 60 74 c 0
 94 74 109 96 145 254 c 2
 408 1395 l 2
 409 1399 409 1400 413 1400 c 2
EndSplineSet
EndChar

StartChar: K
Encoding: 75 75 22
Width: 463
VWidth: 960
Flags: HMW
AnchorPoint: "top" 455 1400 basechar 0
AnchorPoint: "bottom" 132 0 basechar 0
LayerCount: 2
Fore
SplineSet
278 1400 m 14
 382 1400 l 22
 386 1400 387 1399 386 1395 c 14
 65 5 l 22
 64 1 63 0 59 0 c 14
 -45 0 l 22
 -49 0 -50 1 -49 5 c 14
 272 1395 l 22
 273 1399 274 1400 278 1400 c 14
251 746 m 5
 350 824 l 5
 337 5 l 6
 339 1 339 0 335 0 c 6
 218 0 l 6
 214 0 212 1 210 5 c 6
 251 746 l 5
554 1395 m 6
 557 1397 560 1400 565 1400 c 6
 649 1400 l 6
 655 1400 656 1399 651 1395 c 6
 277 660 l 5
 266 690 l 5
 155 463 l 5
 124 518 l 5
 554 1395 l 6
EndSplineSet
EndChar

StartChar: L
Encoding: 76 76 23
Width: 349
VWidth: 960
Flags: HMW
AnchorPoint: "top" 335 1400 basechar 0
AnchorPoint: "bottom" 92 0 basechar 0
LayerCount: 2
Fore
SplineSet
278 1400 m 6
 382 1400 l 6
 386 1400 387 1399 386 1395 c 6
 84 88 l 29
 215 88 l 6
 219 88 220 86 219 82 c 6
 201 5 l 6
 200 1 199 0 195 0 c 6
 -45 0 l 6
 -49 0 -50 1 -49 5 c 6
 272 1395 l 6
 273 1399 274 1400 278 1400 c 6
EndSplineSet
EndChar

StartChar: M
Encoding: 77 77 24
Width: 627
VWidth: 960
Flags: HMW
AnchorPoint: "top" 510 1400 basechar 0
AnchorPoint: "bottom" 187 0 basechar 0
LayerCount: 2
Fore
SplineSet
298 1137 m 5
 37 5 l 6
 36 1 35 0 31 0 c 6
 -46 0 l 6
 -50 0 -51 1 -50 5 c 6
 271 1395 l 6
 272 1399 273 1400 277 1400 c 6
 414 1400 l 6
 418 1400 420 1399 420 1395 c 6
 288 396 l 5
 619 1395 l 6
 621 1399 623 1400 627 1400 c 6
 755 1400 l 6
 759 1400 761 1399 760 1395 c 6
 439 5 l 6
 438 1 436 0 432 0 c 6
 339 0 l 6
 335 0 334 1 335 5 c 6
 599 1149 l 5
 218 5 l 6
 216 1 214 0 210 0 c 6
 168 0 l 6
 164 0 162 1 162 5 c 6
 298 1137 l 5
EndSplineSet
EndChar

StartChar: N
Encoding: 78 78 25
Width: 502
VWidth: 960
Flags: HMW
AnchorPoint: "top" 470 1400 basechar 0
AnchorPoint: "bottom" 142 0 basechar 0
LayerCount: 2
Fore
SplineSet
544 1400 m 6
 632 1400 l 6
 636 1400 637 1399 636 1395 c 6
 315 5 l 6
 314 1 313 0 309 0 c 6
 249 0 l 6
 245 0 241 1 241 5 c 6
 297 1174 l 5
 317 1174 l 5
 47 5 l 6
 46 1 45 0 41 0 c 6
 -46 0 l 6
 -50 0 -51 1 -50 5 c 6
 271 1395 l 6
 272 1399 273 1400 277 1400 c 6
 387 1400 l 6
 391 1400 395 1399 395 1395 c 6
 338 443 l 5
 318 443 l 5
 538 1395 l 6
 539 1399 540 1400 544 1400 c 6
EndSplineSet
EndChar

StartChar: O
Encoding: 79 79 26
Width: 502
VWidth: 960
Flags: HMW
AnchorPoint: "top" 455 1400 basechar 0
AnchorPoint: "bottom" 132 0 basechar 0
LayerCount: 2
Fore
SplineSet
-0 315 m 2
 178 1086 l 2
 233 1323 296 1418 448 1418 c 0
 601 1418 641 1322 587 1086 c 2
 409 315 l 2
 355 79 289 -18 137 -18 c 4
 -15 -18 -55 78 -0 315 c 2
115 299 m 2
 72 114 86 64 146 64 c 0
 207 64 244 115 286 299 c 2
 471 1101 l 2
 513 1285 500 1336 439 1336 c 0
 379 1336 343 1286 300 1101 c 2
 115 299 l 2
EndSplineSet
EndChar

StartChar: P
Encoding: 80 80 27
Width: 456
VWidth: 960
Flags: HMW
AnchorPoint: "top" 425 1400 basechar 0
AnchorPoint: "bottom" 28 0 basechar 0
LayerCount: 2
Fore
SplineSet
375 1312 m 5
 233 699 l 5
 257 699 l 6
 314 699 344 740 370 851 c 6
 442 1160 l 6
 468 1271 456 1312 399 1312 c 6
 375 1312 l 5
409 1400 m 6
 539 1400 599 1347 552 1145 c 6
 489 872 l 6
 442 670 355 618 229 618 c 6
 215 618 l 5
 73 5 l 6
 72 1 72 0 68 0 c 6
 -36 0 l 6
 -40 0 -41 1 -40 5 c 6
 281 1395 l 6
 282 1399 283 1400 287 1400 c 6
 409 1400 l 6
EndSplineSet
EndChar

StartChar: Q
Encoding: 81 81 28
Width: 608
VWidth: 960
Flags: HMW
AnchorPoint: "top" 475 1400 basechar 0
AnchorPoint: "bottom" 152 0 basechar 0
LayerCount: 2
Fore
SplineSet
474 82 m 2
 456 5 l 2
 455 1 456 0 450 -2 c 0
 340 -37 292 46 323 179 c 1
 406 294 l 1
 366 119 311 -18 149 -18 c 4
 -24 -18 -28 120 12 295 c 2
 199 1105 l 2
 239 1280 281 1418 464 1418 c 0
 647 1418 666 1280 626 1105 c 2
 414 188 l 2
 398 118 412 81 469 88 c 0
 475 89 475 85 474 82 c 2
316 277 m 2
 511 1124 l 2
 540 1250 546 1336 465 1336 c 0
 384 1336 351 1250 322 1124 c 2
 127 277 l 2
 98 150 91 64 172 64 c 0
 253 64 287 150 316 277 c 2
EndSplineSet
EndChar

StartChar: R
Encoding: 82 82 29
Width: 507
VWidth: 960
Flags: HMW
AnchorPoint: "top" 440 1400 basechar 0
AnchorPoint: "bottom" 118 0 basechar 0
LayerCount: 2
Fore
SplineSet
375 1312 m 5
 243 742 l 5
 281 742 l 6
 341 742 373 784 399 895 c 6
 460 1159 l 6
 485 1269 473 1312 413 1312 c 6
 375 1312 l 5
434 1400 m 6
 571 1400 616 1327 575 1150 c 6
 523 923 l 6
 482 744 393 684 269 684 c 5
 276 714 l 5
 402 714 463 678 433 549 c 6
 358 225 l 6
 325 81 336 64 351 30 c 4
 354 24 354 23 353 20 c 6
 349 5 l 6
 348 1 346 0 342 0 c 6
 234 0 l 6
 230 0 229 0 227 4 c 4
 210 53 213 90 244 225 c 6
 324 571 l 6
 337 629 330 661 262 661 c 6
 225 661 l 5
 73 5 l 6
 72 1 72 0 68 0 c 6
 -36 0 l 6
 -40 0 -41 1 -40 5 c 6
 281 1395 l 6
 282 1399 283 1400 287 1400 c 6
 434 1400 l 6
EndSplineSet
EndChar

StartChar: S
Encoding: 83 83 30
Width: 446
VWidth: 960
Flags: HMW
AnchorPoint: "top" 425 1400 basechar 0
AnchorPoint: "bottom" 112 0 basechar 0
LayerCount: 2
Fore
SplineSet
121 524 m 2
 189 524 l 2
 190 524 195.07751346 523.561451646 193 520 c 0
 144 436 100.835146768 310.780166068 74 231 c 0
 37 121 68 72 113 72 c 0
 155 72 208 117 249 293 c 0
 283 439 245 573 219 686 c 0
 187 825 164 958 211 1160 c 0
 257 1361 331 1418 437 1418 c 0
 538 1418 603.962937967 1311.15198956 503 1080 c 2
 427 906 l 2
 426 902 423 902 420 902 c 2
 354 902 l 2
 351 902 348.668329123 903.131785804 350 906 c 0
 389 990 416 1063 435 1145 c 0
 473 1311 457 1334 422 1334 c 0
 387 1334 352 1299 320 1162 c 0
 282 999 299 875 332 744 c 0
 362 626 402 481 359 296 c 0
 305 64 215 -18 95 -18 c 4
 -22 -18 -54.351926898 116.148449164 0 245 c 2
 116 520 l 2
 117 524 120 524 121 524 c 2
EndSplineSet
EndChar

StartChar: T
Encoding: 84 84 31
Width: 405
VWidth: 960
Flags: HMW
AnchorPoint: "top" 405 1400 basechar 0
AnchorPoint: "bottom" 42 0 basechar 0
LayerCount: 2
Fore
SplineSet
225 1400 m 2
 585 1400 l 2
 589 1400 591 1399 590 1395 c 2
 572 1318 l 2
 571 1314 569 1312 565 1312 c 2
 442 1312 l 1
 140 5 l 2
 139 1 138 0 134 0 c 2
 31 0 l 2
 27 0 26 1 27 5 c 2
 329 1312 l 1
 205 1312 l 2
 201 1312 201 1314 202 1318 c 2
 220 1395 l 2
 221 1399 221 1400 225 1400 c 2
EndSplineSet
EndChar

StartChar: U
Encoding: 85 85 32
Width: 501
VWidth: 960
Flags: HMW
AnchorPoint: "ogonek" 190 0 basechar 0
AnchorPoint: "top" 465 1400 basechar 0
AnchorPoint: "bottom" 142 0 basechar 0
LayerCount: 2
Fore
SplineSet
259 219 m 6
 530 1395 l 6
 531 1399 532 1400 536 1400 c 6
 623 1400 l 6
 627 1400 629 1399 628 1395 c 6
 363 246 l 6
 326 86 289 -18 136 -18 c 4
 -2 -18 -31 55 14 250 c 6
 278 1395 l 6
 279 1399 279 1400 283 1400 c 6
 392 1400 l 6
 396 1400 397 1399 396 1395 c 6
 128 232 l 6
 98 104 109 64 159 64 c 4
 213 64 235 113 259 219 c 6
EndSplineSet
EndChar

StartChar: V
Encoding: 86 86 33
Width: 454
VWidth: 960
Flags: HMW
AnchorPoint: "top" 430 1400 basechar 0
AnchorPoint: "bottom" 108 0 basechar 0
LayerCount: 2
Fore
SplineSet
151 150 m 5
 536 1395 l 6
 538 1398 539 1400 543 1400 c 6
 633 1400 l 6
 637 1400 637 1398 635 1395 c 6
 182 5 l 6
 180 2 178 0 174 0 c 6
 41 0 l 6
 37 0 36 2 36 5 c 6
 215 1395 l 6
 215 1398 215 1400 219 1400 c 6
 329 1400 l 6
 333 1400 335 1399 335 1395 c 6
 151 150 l 5
EndSplineSet
EndChar

StartChar: W
Encoding: 87 87 34
Width: 714
VWidth: 960
Flags: HMW
AnchorPoint: "top" 575 1400 basechar 0
AnchorPoint: "bottom" 252 0 basechar 0
LayerCount: 2
Fore
SplineSet
152 180 m 5
 529 1395 l 6
 531 1398 532 1400 536 1400 c 6
 627 1400 l 6
 631 1400 632 1398 632 1395 c 6
 439 171 l 5
 817 1395 l 6
 819 1398 821 1400 825 1400 c 6
 908 1400 l 6
 912 1400 912 1398 910 1395 c 6
 464 5 l 6
 462 1 460 0 456 0 c 6
 324 0 l 6
 321 0 318 1 318 5 c 6
 483 1036 l 5
 164 5 l 6
 162 1 160 0 156 0 c 6
 26 0 l 6
 22 0 20 1 20 5 c 6
 220 1395 l 6
 220 1398 221 1400 225 1400 c 6
 331 1400 l 6
 335 1400 337 1398 337 1395 c 6
 152 180 l 5
EndSplineSet
EndChar

StartChar: X
Encoding: 88 88 35
Width: 462
VWidth: 960
Flags: HMW
AnchorPoint: "top" 440 1400 basechar 0
AnchorPoint: "bottom" 118 0 basechar 0
LayerCount: 2
Fore
SplineSet
519 1400 m 6
 625 1400 l 6
 629 1400 629 1399 625 1395 c 6
 339 715 l 5
 321 5 l 6
 323 1 322 0 318 0 c 6
 196 0 l 6
 192 0 190 1 189 5 c 6
 249 602 l 5
 20 5 l 6
 16 1 15 0 11 0 c 6
 -96 0 l 6
 -100 0 -101 1 -97 5 c 6
 216 693 l 5
 240 1395 l 6
 238 1399 238 1400 242 1400 c 6
 363 1400 l 6
 367 1400 370 1399 371 1395 c 6
 303 802 l 5
 510 1395 l 6
 514 1399 515 1400 519 1400 c 6
EndSplineSet
EndChar

StartChar: Y
Encoding: 89 89 36
Width: 465
VWidth: 960
Flags: HMW
AnchorPoint: "top" 435 1400 basechar 0
AnchorPoint: "bottom" 112 0 basechar 0
LayerCount: 2
Fore
SplineSet
555 1400 m 6
 647 1400 l 6
 651 1400 651 1399 648 1395 c 6
 314 625 l 5
 171 5 l 6
 170 1 168 0 164 0 c 6
 61 0 l 6
 57 0 56 1 57 5 c 6
 200 625 l 5
 222 1395 l 6
 221 1399 221 1400 225 1400 c 6
 341 1400 l 6
 345 1400 347 1399 348 1395 c 6
 291 717 l 5
 546 1395 l 6
 549 1399 551 1400 555 1400 c 6
EndSplineSet
EndChar

StartChar: Z
Encoding: 90 90 37
Width: 403
VWidth: 960
Flags: HMW
AnchorPoint: "top" 420 1400 basechar 0
AnchorPoint: "bottom" 98 0 basechar 0
LayerCount: 2
Fore
SplineSet
-134 5 m 6
 441 1312 l 5
 231 1312 l 6
 227 1312 226 1314 227 1318 c 6
 245 1395 l 6
 246 1399 247 1400 251 1400 c 6
 589 1400 l 6
 593 1400 593 1399 589 1395 c 6
 16 88 l 5
 267 88 l 6
 271 88 272 86 271 82 c 6
 253 5 l 6
 252 1 251 0 247 0 c 6
 -133 0 l 6
 -137 0 -138 1 -134 5 c 6
EndSplineSet
EndChar

StartChar: a
Encoding: 97 97 38
Width: 378
VWidth: 960
Flags: HMW
AnchorPoint: "ogonek" 200 0 basechar 0
AnchorPoint: "top" 329 1050 basechar 0
AnchorPoint: "bottom" 83 0 basechar 0
LayerCount: 2
Fore
SplineSet
184 205 m 5
 151 60 101 -16 25 -16 c 4
 -65 -16 -85 54 -46 224 c 6
 91 817 l 6
 128 977 183 1059 269 1059 c 4
 351 1059 390 987 360 859 c 5
 306 846 l 5
 329 947 321 977 290 977 c 4
 255 977 231 929 208 830 c 6
 65 213 l 6
 42 114 39 67 74 67 c 4
 104 67 136 107 159 206 c 5
 184 205 l 5
269 62 m 2
 256 5 l 2
 255 1 255 0 251 -1 c 0
 117 -41 116 22 141 132 c 2
 329 944 l 25
 438 1053 l 2
 442 1057 444 1059 448 1059 c 2
 464 1059 l 2
 468 1059 469 1057 468 1053 c 2
 256 135 l 2
 241 72 246 66 266 66 c 0
 269 66 270 65 269 62 c 2
EndSplineSet
EndChar

StartChar: b
Encoding: 98 98 39
Width: 441
VWidth: 960
Flags: HMW
LayerCount: 2
Fore
SplineSet
271 1450 m 2
 375 1450 l 2
 379 1450 380 1449 379 1445 c 2
 67 97 l 1
 -42 -12 l 2
 -46 -16 -48 -18 -52 -18 c 2
 -68 -18 l 2
 -72 -18 -73 -16 -72 -12 c 2
 265 1445 l 2
 266 1449 267 1450 271 1450 c 2
214 845 m 1
 247 990 297 1067 383 1067 c 0
 473 1067 509 997 470 827 c 2
 331 224 l 2
 294 64 234 -18 138 -18 c 4
 46 -18 6 54 36 182 c 1
 90 195 l 1
 67 94 77 64 118 64 c 0
 163 64 192 112 215 211 c 2
 359 838 l 2
 382 937 375 984 330 984 c 0
 280 984 263 945 240 846 c 1
 214 845 l 1
EndSplineSet
EndChar

StartChar: c
Encoding: 99 99 40
Width: 373
VWidth: 960
Flags: HMW
AnchorPoint: "bottom" 78 0 basechar 0
AnchorPoint: "top" 317 1050 basechar 0
LayerCount: 2
Fore
SplineSet
319 390 m 0
 303 320 290 269 273 202 c 0
 235 54 187 -18 80 -18 c 4
 -33 -18 -70 50 -30 224 c 2
 109 827 l 2
 145 984 189 1067 313 1067 c 0
 423 1067 450 994 419 851 c 0
 405 784 385 733 338 661 c 0
 336.906754998 659.325241699 337 657 333 657 c 2
 263 657 l 2
 259 657 255.917320816 658.318391905 257 660 c 0
 304 733 322 778 336 843 c 0
 358 942 351 982 311 982 c 0
 269 982 248 938 224 832 c 2
 82 218 l 2
 58 116 65 76 108 76 c 0
 147 76 171 113 196 209 c 0
 213 275 222 317 241 390 c 0
 241 392 243 394 247 394 c 2
 315 394 l 2
 319 394 319 392 319 390 c 0
EndSplineSet
EndChar

StartChar: d
Encoding: 100 100 41
Width: 441
VWidth: 960
Flags: HMW
LayerCount: 2
Fore
SplineSet
229 203 m 1
 196 58 145 -18 64 -18 c 4
 -23 -18 -65 54 -26 224 c 2
 113 827 l 2
 152 997 207 1067 294 1067 c 0
 375 1067 410 991 377 846 c 1
 350 846 l 1
 373 945 379 984 325 984 c 0
 275 984 251 937 228 838 c 2
 84 211 l 2
 61 112 63 64 113 64 c 0
 167 64 179 105 202 204 c 1
 229 203 l 1
604 1445 m 2
 271 5 l 2
 270 1 268 0 264 0 c 2
 168 0 l 2
 164 0 163 1 164 5 c 2
 188 110 l 1
 184 126 l 1
 489 1445 l 2
 490 1449 492 1450 496 1450 c 2
 599 1450 l 2
 603 1450 605 1449 604 1445 c 2
EndSplineSet
EndChar

StartChar: e
Encoding: 101 101 42
Width: 407
VWidth: 960
Flags: HMW
AnchorPoint: "ogonek" 119 30 basechar 0
AnchorPoint: "bottom" 84 0 basechar 0
AnchorPoint: "top" 327 1050 basechar 0
LayerCount: 2
Fore
SplineSet
345 410 m 0
 325 334 307 273 290 210 c 0
 244 35 184 -18 86 -18 c 4
 -54 -18 -66 69 -29 230 c 2
 108 821 l 2
 144 977 188 1067 324 1067 c 0
 456 1067 472 971 447 850 c 0
 419 717 401 635 369 495 c 0
 369 493 367 491 363 491 c 2
 102 491 l 1
 117 554 l 1
 272 554 l 1
 357 933 371 994 314 994 c 0
 269 994 248 940 225 841 c 2
 79 209 l 2
 55 103 53 57 97 57 c 0
 146 57 168 117 241 412 c 0
 241 414 244 415 248 415 c 2
 342 415 l 2
 346 415 346 413 345 410 c 0
EndSplineSet
EndChar

StartChar: f
Encoding: 102 102 43
Width: 273
VWidth: 960
Flags: HMW
LayerCount: 2
Fore
SplineSet
339 974 m 2
 153 974 l 2
 149 974 148 975 149 979 c 2
 164 1045 l 2
 165 1049 166 1050 170 1050 c 2
 356 1050 l 2
 360 1050 361 1049 360 1045 c 2
 345 979 l 2
 344 975 343 974 339 974 c 2
267 1334 m 6
 291 1440 324 1477 450 1461 c 4
 455 1460 456 1459 455 1455 c 6
 440 1391 l 6
 439 1388 437 1385 431 1387 c 4
 399 1395 389 1378 375 1318 c 6
 -11 -355 l 6
 -12 -359 -14 -360 -18 -360 c 6
 -119 -360 l 6
 -123 -360 -124 -359 -123 -355 c 6
 267 1334 l 6
EndSplineSet
EndChar

StartChar: g
Encoding: 103 103 44
Width: 376
VWidth: 960
Flags: HMW
AnchorPoint: "top" 263 1075 basechar 0
LayerCount: 2
Fore
SplineSet
556 1255 m 0
 504 1058 390 1017 329 1017 c 1
 317 1036 l 1
 365 1036 403 1075 447 1256 c 0
 448 1259 451 1260 454 1260 c 2
 553 1260 l 2
 557 1260 557 1259 556 1255 c 0
142 162 m 2
 222 94 229 29 198 -104 c 0
 169 -228 111 -360 -12 -360 c 6
 -15 -360 l 6
 -102 -360 -153 -284 -115 -120 c 0
 -84 13 -24 101 64 101 c 1
 81 84 l 1
 37 83 11 -2 -9 -90 c 0
 -38 -215 -33 -282 -1 -282 c 2
 3 -282 l 2
 39 -282 74 -211 98 -108 c 0
 116 -32 126 20 79 64 c 2
 61 80 l 2
 25 113 -22 173 -6 242 c 0
 10 310 71 345 169 345 c 1
 152 316 l 1
 122 316 80 317 72 282 c 0
 65 253 81 214 107 192 c 2
 142 162 l 2
225 506 m 2
 307 860 l 2
 325 937 337 996 303 996 c 0
 262 996 245 934 228 860 c 2
 146 506 l 2
 129 432 117 370 158 370 c 0
 192 370 207 428 225 506 c 2
337 529 m 2
 308 402 275 297 158 297 c 0
 40 297 15 402 44 529 c 2
 116 842 l 2
 145 969 177 1067 295 1067 c 0
 412 1067 438 969 409 842 c 2
 337 529 l 2
EndSplineSet
EndChar

StartChar: h
Encoding: 104 104 45
Width: 426
VWidth: 960
Flags: HMW
AnchorPoint: "bottom" 85 0 basechar 0
AnchorPoint: "top" 334 1450 basechar 0
LayerCount: 2
Fore
SplineSet
281 1450 m 2
 384 1450 l 2
 388 1450 390 1449 389 1445 c 2
 56 5 l 2
 55 1 52 0 49 0 c 2
 -54 0 l 2
 -58 0 -60 1 -59 5 c 2
 274 1445 l 2
 275 1449 277 1450 281 1450 c 2
240 877 m 1
 266 988 295 1067 380 1067 c 4
 458 1067 485 1008 460 901 c 2
 253 5 l 2
 252 1 252 0 248 0 c 2
 143 0 l 2
 139 0 139 1 140 5 c 2
 346 898 l 2
 360 957 360 990 328 990 c 0
 292 990 270 933 246 828 c 1
 240 877 l 1
EndSplineSet
EndChar

StartChar: i
Encoding: 105 105 46
Width: 233
VWidth: 960
Flags: HMW
AnchorPoint: "bottom" -7 0 basechar 0
AnchorPoint: "ogonek" -7 0 basechar 0
LayerCount: 2
Fore
SplineSet
371 1436 m 2
 318 1209 l 2
 317 1205 316 1204 312 1204 c 2
 237 1204 l 2
 233 1204 232 1205 233 1209 c 2
 286 1436 l 2
 287 1440 288 1441 292 1441 c 2
 367 1441 l 2
 371 1441 372 1440 371 1436 c 2
295 1045 m 6
 55 5 l 6
 54 1 53 0 49 0 c 6
 -55 0 l 6
 -59 0 -60 1 -59 5 c 6
 181 1045 l 6
 182 1049 183 1050 187 1050 c 6
 291 1050 l 6
 295 1050 296 1049 295 1045 c 6
EndSplineSet
EndChar

StartChar: j
Encoding: 106 106 47
Width: 233
VWidth: 960
Flags: HMW
LayerCount: 2
Fore
SplineSet
40 -59 m 6
 -9 -271 -56 -371 -155 -371 c 4
 -274 -371 -235 -200 -200 -107 c 4
 -198 -102 -195 -100 -188 -100 c 6
 -142 -100 l 6
 -135 -100 -132 -103 -134 -107 c 4
 -170 -201 -179 -284 -159 -284 c 4
 -141 -284 -103 -185 -74 -60 c 6
 180 1040 l 6
 182 1047 185 1050 192 1050 c 6
 286 1050 l 6
 293 1050 296 1047 294 1040 c 6
 40 -59 l 6
371 1436 m 2
 318 1209 l 2
 317 1205 316 1204 312 1204 c 2
 237 1204 l 2
 233 1204 232 1205 233 1209 c 2
 286 1436 l 2
 287 1440 288 1441 292 1441 c 2
 367 1441 l 2
 371 1441 372 1440 371 1436 c 2
EndSplineSet
EndChar

StartChar: k
Encoding: 107 107 48
Width: 416
VWidth: 960
Flags: HMW
LayerCount: 2
Fore
SplineSet
280 1450 m 2
 384 1450 l 2
 388 1450 389 1449 388 1445 c 2
 55 5 l 2
 54 1 52 0 49 0 c 2
 -55 0 l 2
 -59 0 -60 1 -59 5 c 2
 274 1445 l 2
 275 1449 276 1450 280 1450 c 2
108 417 m 1
 418 1045 l 2
 420 1049 423 1050 427 1050 c 2
 525 1050 l 2
 529 1050 531 1050 528 1045 c 2
 124 352 l 1
 108 417 l 1
227 595 m 1
 314 718 l 1
 304 5 l 2
 304 1 304 0 301 0 c 2
 188 0 l 2
 183 0 181 1 181 5 c 2
 227 595 l 1
EndSplineSet
EndChar

StartChar: l
Encoding: 108 108 49
Width: 233
VWidth: 960
Flags: HMW
LayerCount: 2
Fore
SplineSet
280 1450 m 6
 384 1450 l 6
 388 1450 389 1449 388 1445 c 6
 55 5 l 6
 54 1 52 0 49 0 c 6
 -55 0 l 6
 -59 0 -60 1 -59 5 c 6
 274 1445 l 6
 275 1449 276 1450 280 1450 c 6
EndSplineSet
EndChar

StartChar: m
Encoding: 109 109 50
Width: 564
VWidth: 960
Flags: HMW
LayerCount: 2
Fore
SplineSet
394 877 m 1
 420 988 452 1067 538 1067 c 0
 616 1067 631 1008 606 901 c 2
 399 5 l 2
 398 1 396 0 392 0 c 2
 290 0 l 2
 286 0 285 1 286 5 c 2
 493 901 l 2
 506 957 506 990 483 990 c 0
 460 990 434 936 410 831 c 1
 394 877 l 1
178 1050 m 2
 267 1050 l 6
 271 1050 272 1049 271 1045 c 6
 247 941 l 5
 258 927 l 1
 45 5 l 2
 44 1 43 0 39 0 c 2
 -64 0 l 2
 -68 0 -69 1 -68 5 c 2
 172 1045 l 2
 173 1049 174 1050 178 1050 c 2
230 877 m 1
 256 988 281 1067 361 1067 c 0
 450 1067 451 1008 426 901 c 2
 219 5 l 2
 218 1 217 0 213 0 c 2
 116 0 l 2
 112 0 111 1 112 5 c 2
 319 901 l 2
 332 957 330 990 308 990 c 0
 285 990 260 936 236 831 c 1
 230 877 l 1
EndSplineSet
EndChar

StartChar: n
Encoding: 110 110 51
Width: 409
VWidth: 960
Flags: HMW
AnchorPoint: "bottom" 85 0 basechar 0
AnchorPoint: "top" 327 1050 basechar 0
LayerCount: 2
Fore
SplineSet
179 1050 m 2
 269 1050 l 2
 273 1050 273 1049 272 1045 c 2
 247 934 l 1
 259 921 l 1
 47 5 l 2
 46 1 44 0 40 0 c 2
 -63 0 l 2
 -67 0 -69 1 -68 5 c 2
 172 1045 l 2
 173 1049 175 1050 179 1050 c 2
231 877 m 1
 257 988 286 1067 371 1067 c 0
 449 1067 476 1008 451 901 c 2
 244 5 l 2
 243 1 243 0 239 0 c 2
 134 0 l 2
 130 0 130 1 131 5 c 2
 337 898 l 2
 351 957 351 990 319 990 c 0
 283 990 261 933 237 828 c 1
 231 877 l 1
EndSplineSet
EndChar

StartChar: o
Encoding: 111 111 52
Width: 418
VWidth: 960
Flags: HMW
AnchorPoint: "top" 329 1050 basechar 0
AnchorPoint: "bottom" 87 0 basechar 0
LayerCount: 2
Fore
SplineSet
-29 230 m 2
 108 821 l 2
 143 972 189 1067 325 1067 c 0
 461 1067 486 972 451 821 c 2
 314 230 l 2
 279 79 231 -18 95 -18 c 4
 -41 -18 -64 79 -29 230 c 2
81 209 m 2
 60 118 52 57 102 57 c 0
 152 57 171 118 192 209 c 2
 338 841 l 2
 359 932 368 994 318 994 c 0
 268 994 248 932 227 841 c 2
 81 209 l 2
EndSplineSet
EndChar

StartChar: p
Encoding: 112 112 53
Width: 441
VWidth: 960
Flags: HMW
LayerCount: 2
Fore
SplineSet
214 846 m 1
 247 991 297 1068 378 1068 c 0
 465 1068 509 996 470 826 c 2
 330 223 l 2
 291 53 234 -17 147 -17 c 4
 66 -17 33 60 66 205 c 1
 93 205 l 1
 70 106 65 65 119 65 c 0
 169 65 192 113 215 212 c 2
 360 839 l 2
 383 938 381 985 331 985 c 0
 277 985 264 945 241 846 c 1
 214 846 l 1
-151 -355 m 2
 172 1045 l 2
 173 1049 175 1050 179 1050 c 2
 275 1050 l 2
 279 1050 280 1049 279 1045 c 2
 255 938 l 1
 259 924 l 1
 -36 -355 l 2
 -37 -359 -39 -360 -43 -360 c 2
 -146 -360 l 2
 -150 -360 -152 -359 -151 -355 c 2
EndSplineSet
EndChar

StartChar: q
Encoding: 113 113 54
Width: 441
VWidth: 960
Flags: HMW
LayerCount: 2
Fore
SplineSet
182 -360 m 2
 78 -360 l 2
 74 -360 73 -359 74 -355 c 2
 374 944 l 1
 483 1053 l 2
 487 1057 489 1059 493 1059 c 2
 509 1059 l 2
 513 1059 514 1057 513 1053 c 2
 188 -355 l 2
 187 -359 186 -360 182 -360 c 2
227 195 m 1
 194 50 144 -26 58 -26 c 4
 -32 -26 -68 44 -29 214 c 2
 111 817 l 2
 148 977 208 1059 304 1059 c 0
 396 1059 435 987 405 859 c 1
 351 846 l 1
 374 947 366 977 325 977 c 0
 280 977 251 929 228 830 c 2
 83 203 l 2
 60 104 67 57 112 57 c 0
 162 57 178 97 201 196 c 1
 227 195 l 1
EndSplineSet
EndChar

StartChar: r
Encoding: 114 114 55
Width: 367
VWidth: 960
Flags: HMW
AnchorPoint: "top" 325 1050 basechar 0
AnchorPoint: "bottom" 7 0 basechar 0
LayerCount: 2
Fore
SplineSet
219 713 m 5
 212 770 l 5
 249 930 292 1060 384 1060 c 4
 473 1060 505 933 331 670 c 4
 328 666 326 663 319 663 c 6
 271 663 l 6
 264 663 261 666 263 670 c 4
 364 904 366 977 339 977 c 4
 311 977 252 858 219 713 c 5
187 1050 m 2
 282 1050 l 2
 286 1050 287 1049 286 1045 c 2
 223 769 l 1
 230 764 l 1
 55 5 l 2
 54 1 53 0 49 0 c 2
 -55 0 l 2
 -59 0 -60 1 -59 5 c 2
 181 1045 l 2
 182 1049 183 1050 187 1050 c 2
EndSplineSet
EndChar

StartChar: s
Encoding: 115 115 56
Width: 368
VWidth: 960
Flags: HMW
AnchorPoint: "top" 302 1050 basechar 0
AnchorPoint: "bottom" 74 0 basechar 0
LayerCount: 2
Fore
SplineSet
54 399 m 2
 132 399 l 2
 136 399 139.531341997 397.254582568 137 394 c 0
 95 340 66 301 50 228 c 0
 24 106 27 70 70 70 c 0
 105 70 139 123 161 219 c 0
 210 433 48 548 116 842 c 0
 158 1024 220 1067 306 1067 c 0
 395 1067 433 998 400 846 c 0
 388 789 368 740 331 666 c 0
 329.156091109 662.312182217 330 661 326 661 c 2
 249 661 l 2
 245 661 241.992631985 663.39854562 244 667 c 0
 278 728 296 766 310 827 c 0
 336 942 336 982 299 982 c 0
 272 982 245 952 219 840 c 0
 160 586 326 472 270 228 c 0
 234 72 182 -18 76 -18 c 4
 -28 -18 -76 39 -44 200 c 0
 -27 283 7 343 49 395 c 0
 51.590700261 398.207533656 50 399 54 399 c 2
EndSplineSet
EndChar

StartChar: t
Encoding: 116 116 57
Width: 287
VWidth: 960
Flags: HMW
AnchorPoint: "bottom" 47 0 basechar 0
LayerCount: 2
Fore
SplineSet
350 974 m 2
 152 974 l 2
 148 974 147 975 148 979 c 2
 163 1045 l 2
 164 1049 165 1050 169 1050 c 2
 367 1050 l 2
 371 1050 372 1049 371 1045 c 2
 356 979 l 2
 355 975 354 974 350 974 c 2
149 72 m 2
 133 5 l 2
 132 1 132 0 128 -1 c 0
 -12 -21 -32 22 -7 132 c 2
 285 1395 l 6
 286 1399 287 1400 291 1400 c 6
 392 1400 l 6
 396 1400 397 1399 396 1395 c 6
 107 145 l 2
 92 82 104 67 146 76 c 0
 149 77 150 75 149 72 c 2
EndSplineSet
EndChar

StartChar: u
Encoding: 117 117 58
Width: 409
VWidth: 960
Flags: HMW
AnchorPoint: "ogonek" 174 0 basechar 0
AnchorPoint: "bottom" 81 0 basechar 0
AnchorPoint: "top" 323 1050 basechar 0
LayerCount: 2
Fore
SplineSet
234 0 m 2
 143 0 l 6
 139 0 138 1 139 5 c 6
 165 116 l 5
 155 129 l 1
 366 1045 l 2
 367 1049 368 1050 372 1050 c 2
 476 1050 l 2
 480 1050 480 1049 479 1045 c 2
 239 5 l 2
 238 1 238 0 234 0 c 2
181 174 m 1
 155 63 121 -18 36 -18 c 0
 -42 -18 -64 43 -39 150 c 2
 167 1045 l 2
 168 1049 170 1050 174 1050 c 2
 277 1050 l 2
 281 1050 282 1049 281 1045 c 2
 75 153 l 2
 61 94 61 60 93 60 c 0
 129 60 152 118 176 223 c 1
 181 174 l 1
EndSplineSet
EndChar

StartChar: v
Encoding: 118 118 59
Width: 383
VWidth: 960
Flags: HMW
LayerCount: 2
Fore
SplineSet
137 240 m 5
 395 1045 l 6
 397 1049 399 1050 403 1050 c 6
 488 1050 l 6
 492 1050 493 1049 490 1045 c 6
 134 5 l 6
 131 1 130 0 126 0 c 6
 13 0 l 6
 9 0 8 1 7 5 c 6
 133 1045 l 6
 133 1049 133 1050 137 1050 c 6
 243 1050 l 6
 247 1050 249 1049 249 1045 c 6
 137 240 l 5
EndSplineSet
EndChar

StartChar: w
Encoding: 119 119 60
Width: 582
VWidth: 960
Flags: HMW
LayerCount: 2
Fore
SplineSet
360 262 m 5
 610 1045 l 6
 612 1049 614 1050 617 1050 c 6
 687 1050 l 6
 691 1050 692 1048 690 1045 c 6
 347 5 l 6
 345 2 344 0 340 0 c 6
 241 0 l 6
 238 0 235 1 235 5 c 6
 346 752 l 5
 110 5 l 6
 108 1 107 0 103 0 c 6
 7 0 l 6
 4 0 2 1 2 5 c 6
 139 1045 l 6
 139 1049 139 1050 143 1050 c 6
 246 1050 l 6
 249 1050 251 1049 251 1045 c 6
 129 263 l 5
 373 1045 l 6
 375 1049 376 1050 380 1050 c 6
 465 1050 l 6
 468 1050 470 1049 470 1045 c 6
 360 262 l 5
EndSplineSet
EndChar

StartChar: x
Encoding: 120 120 61
Width: 336
VWidth: 960
Flags: HMW
LayerCount: 2
Fore
SplineSet
-14 0 m 6
 -119 0 l 6
 -123 0 -123 1 -119 5 c 6
 114 534 l 5
 130 1045 l 6
 128 1049 128 1050 132 1050 c 6
 252 1050 l 6
 256 1050 258 1049 259 1045 c 6
 200 622 l 5
 333 1045 l 6
 336 1049 338 1050 342 1050 c 6
 448 1050 l 6
 452 1050 452 1049 448 1045 c 6
 229 542 l 5
 217 5 l 6
 219 1 218 0 214 0 c 6
 97 0 l 6
 93 0 91 1 90 5 c 6
 146 454 l 5
 -3 5 l 6
 -6 1 -10 0 -14 0 c 6
EndSplineSet
EndChar

StartChar: y
Encoding: 121 121 62
Width: 393
VWidth: 960
Flags: HMW
AnchorPoint: "top" 345 1050 basechar 0
LayerCount: 2
Fore
SplineSet
159 275 m 1
 410 1045 l 2
 412 1048 413 1050 417 1050 c 2
 497 1050 l 2
 501 1050 501 1048 499 1045 c 2
 168 90 l 2
 45 -266 8 -371 -105 -371 c 0
 -224 -371 -175 -200 -140 -107 c 0
 -138 -102 -135 -100 -128 -100 c 2
 -82 -100 l 2
 -75 -100 -72 -103 -74 -107 c 0
 -110 -201 -119 -284 -99 -284 c 0
 -68 -284 -6 -97 52 78 c 1
 159 1045 l 2
 159 1048 158 1050 162 1050 c 2
 268 1050 l 2
 272 1050 273 1048 273 1045 c 2
 159 275 l 1
EndSplineSet
EndChar

StartChar: z
Encoding: 122 122 63
Width: 351
VWidth: 960
Flags: HMW
AnchorPoint: "top" 316 1050 basechar 0
LayerCount: 2
Fore
SplineSet
-110 5 m 6
 314 962 l 5
 147 962 l 6
 143 962 142 964 143 968 c 6
 161 1045 l 6
 162 1049 163 1050 167 1050 c 6
 462 1050 l 6
 466 1050 467 1049 463 1045 c 6
 42 88 l 5
 228 88 l 6
 232 88 233 86 232 82 c 6
 214 5 l 6
 213 2 212 0 208 0 c 6
 -110 0 l 6
 -114 0 -114 1 -110 5 c 6
EndSplineSet
EndChar

StartChar: comma
Encoding: 44 44 65
Width: 291
VWidth: 1920
Flags: HMW
LayerCount: 2
Fore
SplineSet
-91 -222 m 2
 -100 -222 l 2
 -107 -222 -111 -220 -106 -212 c 2
 10 0 l 1
 -26 0 l 2
 -35 0 -36 1 -34 10 c 2
 15 219 l 2
 17 226 20 229 27 229 c 2
 130 229 l 2
 137 229 140 226 138 219 c 2
 91 17 l 2
 89 10 89 8 83 0 c 2
 -73 -212 l 2
 -79 -221 -83 -222 -91 -222 c 2
EndSplineSet
EndChar

StartChar: exclam
Encoding: 33 33 67
Width: 290
VWidth: 1920
Flags: HMW
LayerCount: 2
Fore
SplineSet
77 0 m 2
 -26 0 l 2
 -33 0 -36 3 -34 10 c 2
 15 219 l 2
 17 226 20 229 27 229 c 2
 130 229 l 2
 137 229 140 226 138 219 c 2
 89 10 l 2
 87 3 84 0 77 0 c 2
179 950 m 2
 292 1440 l 2
 294 1447 298 1450 305 1450 c 2
 416 1450 l 2
 423 1450 425 1447 423 1440 c 2
 310 950 l 2
 308 943 308 937 305 930 c 2
 157 449 l 2
 154 442 150 439 143 439 c 2
 110 439 l 2
 103 439 101 442 102 449 c 2
 176 930 l 2
 177 937 177 943 179 950 c 2
EndSplineSet
EndChar

StartChar: quotesingle
Encoding: 39 39 70
Width: 285
VWidth: 1920
Flags: HMW
LayerCount: 2
Fore
SplineSet
245 918 m 2
 223 918 l 2
 216 918 212 921 213 928 c 2
 256 1204 l 2
 257 1211 257 1217 259 1224 c 2
 302 1410 l 2
 304 1417 307 1420 314 1420 c 2
 387 1420 l 2
 394 1420 397 1417 395 1410 c 2
 352 1224 l 2
 350 1217 348 1211 345 1204 c 2
 259 928 l 2
 256 921 252 918 245 918 c 2
EndSplineSet
EndChar

StartChar: question
Encoding: 63 63 71
Width: 421
VWidth: 1920
Flags: HMW
LayerCount: 2
Fore
SplineSet
139 0 m 2
 36 0 l 2
 29 0 26 3 28 10 c 2
 77 219 l 2
 79 226 82 229 89 229 c 2
 192 229 l 2
 199 229 202 226 200 219 c 2
 151 10 l 2
 149 3 146 0 139 0 c 2
194 404 m 2
 137 404 l 2
 133 404 131 405 132 408 c 0
 151 580 273 607 357 969 c 2
 416 1226 l 2
 431 1290 445 1378 401 1378 c 0
 355 1378 331 1288 315 1218 c 2
 255 957 l 2
 254 953 254 952 250 952 c 2
 152 952 l 2
 148 952 146 953 147 957 c 2
 208 1222 l 2
 235 1338 296 1467 429 1467 c 0
 548 1467 567 1347 541 1233 c 2
 484 986 l 2
 414 682 280 614 201 408 c 0
 200 405 197 404 194 404 c 2
EndSplineSet
EndChar

StartChar: parenleft
Encoding: 40 40 72
Width: 299
VWidth: 2048
Flags: HMW
LayerCount: 2
Fore
SplineSet
194 1220 m 2
 241 1422 350 1582 505 1610 c 0
 509 1611 510 1610 509 1606 c 2
 499 1562 l 2
 498 1559 495 1557 492 1555 c 0
 419 1525 347 1427 301 1227 c 2
 22 19 l 2
 -24 -181 3 -279 62 -309 c 0
 65 -311 66 -313 65 -316 c 2
 55 -360 l 2
 54 -364 53 -365 49 -364 c 0
 -94 -336 -129 -176 -82 26 c 2
 194 1220 l 2
EndSplineSet
EndChar

StartChar: parenright
Encoding: 41 41 73
Width: 298
VWidth: 2048
Flags: HMW
LayerCount: 2
Fore
SplineSet
153 26 m 2
 106 -176 -3 -336 -158 -364 c 0
 -162 -365 -162 -364 -161 -360 c 2
 -151 -316 l 2
 -150 -313 -148 -311 -145 -309 c 0
 -72 -279 -1 -181 45 19 c 2
 324 1227 l 2
 370 1427 344 1525 285 1555 c 0
 282 1557 282 1559 283 1562 c 2
 293 1606 l 2
 294 1610 294 1611 298 1610 c 0
 441 1582 476 1422 429 1220 c 2
 153 26 l 2
EndSplineSet
EndChar

StartChar: asterisk
Encoding: 42 42 74
Width: 518
VWidth: 2048
Flags: HMW
LayerCount: 2
Fore
SplineSet
421 1194 m 1
 416 1227 l 1
 596 1315 l 2
 599 1317 602 1318 606 1318 c 2
 640 1324 l 2
 644 1324 646 1324 646 1320 c 2
 654 1242 l 2
 654 1238 651 1236 648 1234 c 2
 616 1220 l 2
 613 1218 609 1217 605 1217 c 2
 421 1194 l 1
401 1201 m 1
 434 1221 l 1
 538 1098 l 2
 540 1096 541 1092 542 1089 c 2
 551 1060 l 2
 552 1057 551 1056 548 1054 c 2
 469 1004 l 2
 466 1002 464 1003 462 1005 c 2
 446 1029 l 2
 444 1031 442 1034 441 1037 c 2
 401 1201 l 1
407 1221 m 1
 430 1201 l 1
 315 1037 l 2
 312 1034 310 1031 308 1029 c 2
 280 1005 l 2
 278 1003 275 1002 272 1004 c 2
 216 1054 l 2
 213 1056 213 1057 216 1060 c 2
 238 1089 l 2
 241 1092 244 1096 246 1098 c 2
 407 1221 l 1
427 1227 m 1
 409 1194 l 1
 235 1217 l 2
 231 1217 230 1218 227 1220 c 2
 199 1234 l 2
 196 1236 196 1238 198 1242 c 2
 242 1320 l 2
 244 1324 245 1324 249 1324 c 2
 280 1318 l 2
 284 1318 286 1317 289 1315 c 2
 427 1227 l 1
436 1211 m 1
 401 1211 l 1
 408 1389 l 2
 409 1393 409 1395 410 1399 c 2
 422 1432 l 2
 423 1436 425 1437 429 1437 c 2
 513 1437 l 2
 517 1437 518 1436 517 1432 c 2
 513 1399 l 2
 512 1395 512 1393 511 1389 c 2
 436 1211 l 1
EndSplineSet
EndChar

StartChar: at
Encoding: 64 64 75
Width: 790
VWidth: 1920
Flags: HMW
LayerCount: 2
Fore
SplineSet
418 199 m 1
 385 54 326 -17 241 -17 c 0
 163 -17 119 41 158 211 c 2
 302 838 l 2
 339 998 410 1067 490 1067 c 0
 580 1067 609 996 576 851 c 1
 520 841 l 1
 543 939 542 988 497 988 c 0
 455 988 439 949 416 851 c 2
 266 199 l 2
 243 101 241 62 283 62 c 0
 328 62 351 111 374 209 c 1
 418 199 l 1
377 -324 m 0
 336 -354 271 -377 191 -377 c 0
 -80 -377 -114 -191 -59 49 c 2
 159 990 l 2
 218 1245 363 1417 610 1417 c 0
 882 1417 905 1230 856 1016 c 2
 675 235 l 2
 633 55 573 -17 464 -17 c 0
 374 -17 339 55 364 165 c 2
 548 961 l 1
 648 1061 l 2
 651 1064 654 1067 658 1067 c 2
 678 1067 l 2
 682 1067 684 1065 683 1061 c 2
 482 191 l 2
 460 94 460 59 494 59 c 0
 527 59 558 117 585 235 c 2
 766 1016 l 2
 809 1204 786 1347 594 1347 c 0
 413 1347 303 1206 255 996 c 2
 35 45 l 2
 -9 -145 -4 -307 207 -307 c 0
 263 -307 324 -287 366 -259 c 0
 371 -256 373 -257 373 -261 c 2
 381 -315 l 2
 381 -319 381 -321 377 -324 c 0
EndSplineSet
EndChar

StartChar: dollar
Encoding: 36 36 76
Width: 455
VWidth: 1920
Flags: HMW
LayerCount: 2
Fore
SplineSet
50 520 m 2
 139 520 l 2
 140 520 144 519 143 515 c 2
 85 266 l 2
 48 102 66 70 118 70 c 0
 163 70 219 118 268 331 c 0
 305 493 281 602 244 678 c 0
 190 784 149 890 203 1126 c 0
 257 1358 332 1420 440 1420 c 0
 543 1420 588 1364 538 1146 c 2
 484 914 l 2
 483 910 481 910 478 910 c 2
 392 910 l 2
 389 910 387 910 388 914 c 2
 441 1144 l 2
 479 1309 462 1338 422 1338 c 0
 384 1338 345 1297 305 1124 c 0
 266 955 292 832 330 766 c 0
 385 669 428 559 377 336 c 0
 314 62 221 -20 96 -20 c 0
 -23 -20 -63 48 -18 245 c 2
 44 515 l 2
 45 519 49 520 50 520 c 2
463 1590 m 2
 493 1590 l 2
 497 1590 498 1588 497 1584 c 2
 89 -184 l 2
 88 -188 86 -190 82 -190 c 2
 52 -190 l 2
 48 -190 48 -188 49 -184 c 2
 457 1584 l 2
 458 1588 459 1590 463 1590 c 2
EndSplineSet
EndChar

StartChar: numbersign
Encoding: 35 35 77
Width: 573
VWidth: 1920
Flags: HMW
LayerCount: 2
Fore
SplineSet
35 514 m 2
 497 514 l 2
 501 514 501 513 500 509 c 2
 486 452 l 2
 485 448 485 447 481 447 c 2
 19 447 l 2
 15 447 14 448 15 452 c 2
 29 509 l 2
 30 513 31 514 35 514 c 2
193 1028 m 2
 655 1028 l 2
 659 1028 659 1027 658 1023 c 2
 645 966 l 2
 644 962 644 961 640 961 c 2
 178 961 l 2
 174 961 173 962 174 966 c 2
 187 1023 l 2
 188 1027 189 1028 193 1028 c 2
613 1400 m 2
 697 1400 l 2
 702 1400 702 1399 700 1395 c 2
 216 5 l 2
 214 1 214 0 209 0 c 2
 125 0 l 2
 120 0 120 1 122 5 c 2
 606 1395 l 2
 608 1399 608 1400 613 1400 c 2
437 1400 m 2
 521 1400 l 2
 525 1400 526 1399 524 1395 c 2
 40 5 l 2
 38 1 37 0 33 0 c 2
 -51 0 l 2
 -55 0 -56 1 -54 5 c 2
 430 1395 l 2
 432 1399 433 1400 437 1400 c 2
EndSplineSet
EndChar

StartChar: slash
Encoding: 47 47 78
Width: 441
VWidth: 2048
Flags: HMW
LayerCount: 2
Fore
SplineSet
625 1395 m 2
 -28 -95 l 2
 -31 -99 -32 -100 -36 -100 c 2
 -117 -100 l 2
 -121 -100 -123 -99 -121 -95 c 2
 532 1395 l 2
 534 1399 537 1400 540 1400 c 2
 621 1400 l 2
 625 1400 627 1399 625 1395 c 2
EndSplineSet
EndChar

StartChar: percent
Encoding: 37 37 79
Width: 752
VWidth: 2048
Flags: HMW
LayerCount: 2
Fore
SplineSet
153 981 m 2
 210 1226 l 2
 239 1352 302 1418 405 1418 c 0
 508 1418 548 1352 519 1226 c 2
 462 981 l 2
 433 855 363 788 260 788 c 0
 157 788 124 855 153 981 c 2
250 970 m 2
 231 888 235 860 277 860 c 0
 319 860 340 888 359 970 c 2
 421 1237 l 2
 440 1319 431 1346 389 1346 c 0
 347 1346 331 1319 312 1237 c 2
 250 970 l 2
316 174 m 2
 373 420 l 2
 402 546 467 612 570 612 c 0
 673 612 711 546 682 420 c 2
 625 174 l 2
 596 48 528 -18 425 -18 c 0
 322 -18 287 48 316 174 c 2
414 164 m 2
 395 82 399 54 441 54 c 0
 483 54 505 82 524 164 c 2
 586 431 l 2
 605 513 596 540 554 540 c 0
 512 540 495 513 476 431 c 2
 414 164 l 2
894 1395 m 2
 33 5 l 2
 30 1 28 0 24 0 c 2
 -59 0 l 2
 -63 0 -63 1 -60 5 c 2
 802 1395 l 2
 805 1399 807 1400 811 1400 c 2
 893 1400 l 2
 897 1400 897 1399 894 1395 c 2
EndSplineSet
EndChar

StartChar: hyphen
Encoding: 45 45 80
Width: 329
VWidth: 1920
Flags: HMW
LayerCount: 2
Fore
SplineSet
54 573 m 10
 73 652 l 18
 74 656 76 657 80 657 c 10
 314 657 l 18
 318 657 320 656 319 652 c 10
 300 573 l 18
 299 569 297 568 293 568 c 10
 59 568 l 18
 55 568 53 569 54 573 c 10
EndSplineSet
EndChar

StartChar: underscore
Encoding: 95 95 81
Width: 450
VWidth: 1920
Flags: HMW
LayerCount: 2
Fore
SplineSet
-139 -84 m 10
 -121 -5 l 18
 -120 -1 -119 0 -115 0 c 10
 325 0 l 18
 329 0 330 -1 329 -5 c 10
 311 -84 l 18
 310 -88 308 -90 304 -90 c 10
 -136 -90 l 18
 -140 -90 -140 -88 -139 -84 c 10
EndSplineSet
EndChar

StartChar: plus
Encoding: 43 43 82
Width: 560
VWidth: 1920
Flags: HMW
LayerCount: 2
Fore
SplineSet
71 646 m 10
 90 726 l 18
 91 730 93 731 97 731 c 10
 561 731 l 18
 565 731 567 730 566 726 c 10
 547 646 l 18
 546 642 544 642 540 642 c 10
 76 642 l 18
 72 642 70 642 71 646 c 10
338 935 m 10
 414 935 l 18
 418 935 420 934 419 930 c 10
 303 430 l 18
 302 426 300 425 296 425 c 10
 220 425 l 18
 216 425 214 426 215 430 c 10
 331 930 l 18
 332 934 334 935 338 935 c 10
EndSplineSet
EndChar

StartChar: equal
Encoding: 61 61 83
Width: 537
VWidth: 1920
Flags: HMW
LayerCount: 2
Fore
SplineSet
13 362 m 10
 31 442 l 18
 32 446 33 447 37 447 c 10
 467 447 l 18
 471 447 472 446 471 442 c 10
 453 362 l 18
 452 358 450 357 446 357 c 10
 16 357 l 18
 12 357 12 358 13 362 c 10
57 553 m 10
 75 633 l 18
 76 637 77 638 81 638 c 10
 511 638 l 18
 515 638 516 637 515 633 c 10
 497 553 l 18
 496 549 495 548 491 548 c 10
 61 548 l 18
 57 548 56 549 57 553 c 10
EndSplineSet
EndChar

StartChar: less
Encoding: 60 60 84
Width: 491
VWidth: 1920
Flags: HMW
LayerCount: 2
Fore
SplineSet
390 343 m 2
 56 566 l 2
 52 568 53 570 54 574 c 2
 66 626 l 2
 67 630 67 632 71 634 c 2
 509 857 l 2
 513 859 513 859 512 855 c 2
 491 762 l 2
 490 758 489 756 485 754 c 2
 164 600 l 1
 414 446 l 2
 418 444 417 442 416 438 c 2
 395 345 l 2
 394 341 394 341 390 343 c 2
EndSplineSet
EndChar

StartChar: greater
Encoding: 62 62 85
Width: 491
VWidth: 1920
Flags: HMW
LayerCount: 2
Fore
SplineSet
138 857 m 2
 472 634 l 2
 476 632 476 630 475 626 c 2
 463 574 l 2
 462 570 461 568 457 566 c 2
 19 343 l 2
 15 341 15 341 16 345 c 2
 37 438 l 2
 38 442 39 444 43 446 c 2
 365 600 l 1
 114 754 l 2
 110 756 111 758 112 762 c 2
 133 855 l 2
 134 859 134 859 138 857 c 2
EndSplineSet
EndChar

StartChar: backslash
Encoding: 92 92 86
Width: 440
VWidth: 2048
Flags: HMW
LayerCount: 2
Fore
SplineSet
278 -95 m 2
 278 -99 276 -100 272 -100 c 2
 191 -100 l 2
 187 -100 186 -99 185 -95 c 2
 220 1395 l 2
 220 1399 222 1400 226 1400 c 2
 307 1400 l 2
 310 1400 313 1399 313 1395 c 2
 278 -95 l 2
EndSplineSet
EndChar

StartChar: bracketleft
Encoding: 91 91 87
Width: 288
VWidth: 1920
Flags: HMW
LayerCount: 2
Fore
SplineSet
374 1519 m 1
 -41 -279 l 1
 74 -279 l 2
 78 -279 78 -280 77 -284 c 2
 61 -355 l 2
 60 -359 59 -360 55 -360 c 2
 -163 -360 l 2
 -167 -360 -168 -359 -167 -355 c 2
 283 1595 l 2
 284 1599 285 1600 289 1600 c 2
 507 1600 l 2
 511 1600 512 1599 511 1595 c 2
 495 1524 l 2
 494 1520 493 1519 489 1519 c 2
 374 1519 l 1
EndSplineSet
EndChar

StartChar: braceleft
Encoding: 123 123 88
Width: 300
VWidth: 2048
Flags: HMW
LayerCount: 2
Fore
SplineSet
290 1439 m 2
 316 1553 350 1599 493 1600 c 0
 497 1600 499 1599 498 1595 c 2
 488 1551 l 2
 487 1547 485 1546 481 1546 c 0
 431 1544 408 1517 388 1430 c 2
 240 788 l 2
 219 696 189 644 105 620 c 1
 177 596 183 544 162 452 c 2
 14 -190 l 2
 -6 -276 6 -303 53 -306 c 0
 58 -306 59 -307 58 -311 c 2
 48 -355 l 2
 47 -359 45 -360 41 -360 c 0
 -101 -358 -114 -313 -88 -199 c 2
 62 452 l 2
 81 536 70 567 26 583 c 0
 22 585 20 586 21 590 c 2
 35 650 l 2
 36 654 38 656 42 657 c 0
 96 673 121 704 140 788 c 2
 290 1439 l 2
EndSplineSet
EndChar

StartChar: bracketright
Encoding: 93 93 89
Width: 288
VWidth: 1920
Flags: HMW
LayerCount: 2
Fore
SplineSet
-39 -279 m 1
 376 1519 l 1
 261 1519 l 2
 257 1519 256 1520 257 1524 c 2
 273 1595 l 2
 274 1599 275 1600 279 1600 c 2
 497 1600 l 2
 501 1600 502 1599 501 1595 c 2
 51 -355 l 2
 50 -359 49 -360 45 -360 c 2
 -173 -360 l 2
 -177 -360 -178 -359 -177 -355 c 2
 -161 -284 l 2
 -160 -280 -158 -279 -154 -279 c 2
 -39 -279 l 1
EndSplineSet
EndChar

StartChar: braceright
Encoding: 125 125 90
Width: 300
VWidth: 2048
Flags: HMW
LayerCount: 2
Fore
SplineSet
56 -199 m 2
 30 -313 -4 -359 -147 -360 c 0
 -151 -360 -153 -359 -152 -355 c 2
 -142 -311 l 2
 -141 -307 -139 -306 -135 -306 c 0
 -85 -304 -61 -277 -41 -190 c 2
 107 452 l 2
 128 544 158 596 242 620 c 1
 170 644 164 696 185 788 c 2
 333 1430 l 2
 353 1516 341 1543 294 1546 c 0
 289 1546 287 1547 288 1551 c 2
 298 1595 l 2
 299 1599 301 1600 305 1600 c 0
 447 1598 460 1553 434 1439 c 2
 284 788 l 2
 265 704 278 673 322 657 c 0
 326 655 327 654 326 650 c 2
 312 590 l 2
 311 586 309 584 305 583 c 0
 251 567 225 536 206 452 c 2
 56 -199 l 2
EndSplineSet
EndChar

StartChar: bar
Encoding: 124 124 91
Width: 312
VWidth: 1920
Flags: HMW
LayerCount: 2
Fore
SplineSet
375 1600 m 10
 436 1600 l 18
 443 1600 445 1597 443 1590 c 10
 -5 -350 l 18
 -7 -357 -9 -360 -16 -360 c 10
 -77 -360 l 18
 -84 -360 -86 -357 -84 -350 c 10
 364 1590 l 18
 366 1597 368 1600 375 1600 c 10
EndSplineSet
EndChar

StartChar: asciitilde
Encoding: 126 126 92
Width: 664
VWidth: 2048
Flags: HMW
LayerCount: 2
Fore
SplineSet
234 623 m 0
 190 623 154 589 137 524 c 0
 136 521 133 520 130 520 c 2
 48 520 l 2
 44 520 44 521 45 524 c 0
 71 628 163 711 254 711 c 0
 377 711 397 587 470 587 c 0
 514 587 550 621 567 686 c 0
 568 690 571 691 574 691 c 2
 655 691 l 2
 659 691 659 690 658 686 c 0
 632 582 540 500 449 500 c 0
 326 500 307 623 234 623 c 0
EndSplineSet
EndChar

StartChar: asciicircum
Encoding: 94 94 93
Width: 389
VWidth: 1920
Flags: HMW
LayerCount: 2
Fore
SplineSet
367 1271 m 1
 148 740 l 2
 145 734 140 730 133 730 c 2
 75 730 l 2
 68 730 67 734 71 740 c 2
 363 1390 l 2
 369 1399 371 1400 378 1400 c 2
 415 1400 l 2
 422 1400 425 1399 427 1390 c 2
 418 740 l 2
 420 734 421 730 410 730 c 2
 352 730 l 2
 343 730 342 734 341 740 c 2
 367 1271 l 1
EndSplineSet
EndChar

StartChar: figuredash
Encoding: 8210 8210 108
Width: 575
VWidth: 2048
Flags: HMW
LayerCount: 2
Fore
SplineSet
32 572 m 10
 51 652 l 18
 52 656 53 658 57 658 c 10
 582 658 l 18
 586 658 587 656 586 652 c 10
 567 572 l 18
 566 568 565 568 561 568 c 10
 36 568 l 18
 32 568 31 568 32 572 c 10
EndSplineSet
EndChar

StartChar: endash
Encoding: 8211 8211 109
Width: 550
VWidth: 2048
Flags: HMW
LayerCount: 2
Fore
SplineSet
32 572 m 10
 51 652 l 18
 52 656 53 658 57 658 c 10
 557 658 l 18
 561 658 562 656 561 652 c 10
 542 572 l 18
 541 568 540 568 536 568 c 10
 36 568 l 18
 32 568 31 568 32 572 c 10
EndSplineSet
EndChar

StartChar: emdash
Encoding: 8212 8212 110
Width: 1100
VWidth: 2048
Flags: HMW
LayerCount: 2
Fore
SplineSet
32 572 m 10
 51 652 l 18
 52 656 53 658 57 658 c 10
 1107 658 l 18
 1111 658 1112 656 1111 652 c 10
 1092 572 l 18
 1091 568 1090 568 1086 568 c 10
 36 568 l 18
 32 568 31 568 32 572 c 10
EndSplineSet
EndChar

StartChar: uni2015
Encoding: 8213 8213 111
Width: 1180
VWidth: 2048
Flags: HMW
LayerCount: 2
Fore
SplineSet
32 572 m 10
 51 652 l 18
 52 656 53 658 57 658 c 10
 1187 658 l 18
 1191 658 1192 656 1191 652 c 10
 1172 572 l 18
 1171 568 1170 568 1166 568 c 10
 36 568 l 18
 32 568 31 568 32 572 c 10
EndSplineSet
EndChar

StartChar: quoteleft
Encoding: 8216 8216 114
Width: 303
VWidth: 1920
Flags: HMW
LayerCount: 2
Fore
SplineSet
440 1457 m 6
 449 1457 l 6
 456 1457 460 1455 455 1447 c 6
 338 1234 l 5
 375 1234 l 6
 384 1234 385 1233 383 1224 c 6
 335 1016 l 6
 333 1009 329 1006 322 1006 c 6
 219 1006 l 6
 212 1006 210 1009 212 1016 c 6
 258 1217 l 6
 260 1224 260 1226 266 1234 c 6
 421 1447 l 6
 427 1456 432 1457 440 1457 c 6
EndSplineSet
EndChar

StartChar: quotereversed
Encoding: 8219 8219 117
Width: 303
VWidth: 1920
Flags: HMW
LayerCount: 2
Fore
SplineSet
327 966 m 6
 319 966 314 967 312 976 c 6
 256 1189 l 6
 254 1197 253 1199 255 1206 c 6
 302 1408 l 6
 304 1415 307 1418 314 1418 c 6
 417 1418 l 6
 424 1418 427 1415 425 1408 c 6
 377 1199 l 6
 375 1190 374 1189 365 1189 c 6
 328 1189 l 5
 346 976 l 6
 347 968 343 966 336 966 c 6
 327 966 l 6
EndSplineSet
EndChar

StartChar: bullet
Encoding: 8226 8226 120
Width: 351
VWidth: 2048
Flags: HMW
LayerCount: 2
Fore
SplineSet
119 731 m 6
 119 760 l 6
 119 824 169 857 223 857 c 4
 277 857 332 824 332 760 c 6
 332 731 l 6
 332 667 277 633 223 633 c 4
 169 633 119 667 119 731 c 6
EndSplineSet
EndChar

StartChar: dagger
Encoding: 8224 8224 124
Width: 458
VWidth: 1920
Flags: HMW
LayerCount: 2
Fore
SplineSet
137 971 m 10
 154 1045 l 18
 155 1049 156 1050 160 1050 c 10
 543 1050 l 18
 547 1050 548 1049 547 1045 c 10
 530 971 l 18
 529 967 528 967 524 967 c 10
 141 967 l 18
 137 967 136 967 137 971 c 10
381 1400 m 10
 484 1400 l 18
 488 1400 489 1399 488 1395 c 10
 167 5 l 18
 166 1 165 0 161 0 c 10
 58 0 l 18
 54 0 52 1 53 5 c 10
 374 1395 l 18
 375 1399 377 1400 381 1400 c 10
EndSplineSet
EndChar

StartChar: daggerdbl
Encoding: 8225 8225 125
Width: 458
VWidth: 1920
Flags: HMW
LayerCount: 2
Fore
SplineSet
-86 4 m 10
 -69 78 l 18
 -68 82 -67 83 -63 83 c 10
 320 83 l 18
 324 83 325 82 324 78 c 10
 307 4 l 18
 306 0 305 0 301 0 c 10
 -82 0 l 18
 -86 0 -87 0 -86 4 c 10
137 971 m 10
 154 1045 l 18
 155 1049 156 1050 160 1050 c 10
 543 1050 l 18
 547 1050 548 1049 547 1045 c 10
 530 971 l 18
 529 967 528 967 524 967 c 10
 141 967 l 18
 137 967 136 967 137 971 c 10
381 1400 m 10
 484 1400 l 18
 488 1400 489 1399 488 1395 c 10
 84 -355 l 18
 83 -359 82 -360 78 -360 c 10
 -25 -360 l 18
 -29 -360 -31 -359 -30 -355 c 10
 374 1395 l 18
 375 1399 377 1400 381 1400 c 10
EndSplineSet
EndChar

StartChar: perthousand
Encoding: 8240 8240 126
Width: 1137
VWidth: 2048
Flags: HMW
LayerCount: 2
Fore
SplineSet
702 174 m 2
 759 420 l 2
 788 546 852 612 955 612 c 0
 1058 612 1096 546 1067 420 c 2
 1010 174 l 2
 981 48 913 -18 810 -18 c 0
 707 -18 673 48 702 174 c 2
799 164 m 2
 780 82 784 54 826 54 c 0
 868 54 890 82 909 164 c 2
 971 431 l 2
 990 513 981 540 939 540 c 0
 897 540 880 513 861 431 c 2
 799 164 l 2
153 981 m 2
 210 1226 l 2
 239 1352 302 1418 405 1418 c 0
 508 1418 548 1352 519 1226 c 2
 462 981 l 2
 433 855 363 788 260 788 c 0
 157 788 124 855 153 981 c 2
250 970 m 2
 231 888 235 860 277 860 c 0
 319 860 340 888 359 970 c 2
 421 1237 l 2
 440 1319 431 1346 389 1346 c 0
 347 1346 331 1319 312 1237 c 2
 250 970 l 2
316 174 m 2
 373 420 l 2
 402 546 467 612 570 612 c 0
 673 612 711 546 682 420 c 2
 625 174 l 2
 596 48 528 -18 425 -18 c 0
 322 -18 287 48 316 174 c 2
414 164 m 2
 395 82 399 54 441 54 c 0
 483 54 505 82 524 164 c 2
 586 431 l 2
 605 513 596 540 554 540 c 0
 512 540 495 513 476 431 c 2
 414 164 l 2
894 1395 m 2
 33 5 l 2
 30 1 28 0 24 0 c 2
 -59 0 l 2
 -63 0 -63 1 -60 5 c 2
 802 1395 l 2
 805 1399 807 1400 811 1400 c 2
 893 1400 l 2
 897 1400 897 1399 894 1395 c 2
EndSplineSet
EndChar

StartChar: uni2031
Encoding: 8241 8241 127
Width: 1522
VWidth: 2048
Flags: HMW
LayerCount: 2
Fore
SplineSet
1086 174 m 2
 1143 420 l 2
 1172 546 1237 612 1340 612 c 0
 1443 612 1481 546 1452 420 c 2
 1395 174 l 2
 1366 48 1298 -18 1195 -18 c 0
 1092 -18 1057 48 1086 174 c 2
1184 164 m 2
 1165 82 1169 54 1211 54 c 0
 1253 54 1275 82 1294 164 c 2
 1356 431 l 2
 1375 513 1366 540 1324 540 c 0
 1282 540 1265 513 1246 431 c 2
 1184 164 l 2
702 174 m 2
 759 420 l 2
 788 546 852 612 955 612 c 0
 1058 612 1096 546 1067 420 c 2
 1010 174 l 2
 981 48 913 -18 810 -18 c 0
 707 -18 673 48 702 174 c 2
799 164 m 2
 780 82 784 54 826 54 c 0
 868 54 890 82 909 164 c 2
 971 431 l 2
 990 513 981 540 939 540 c 0
 897 540 880 513 861 431 c 2
 799 164 l 2
153 981 m 2
 210 1226 l 2
 239 1352 302 1418 405 1418 c 0
 508 1418 548 1352 519 1226 c 2
 462 981 l 2
 433 855 363 788 260 788 c 0
 157 788 124 855 153 981 c 2
250 970 m 2
 231 888 235 860 277 860 c 0
 319 860 340 888 359 970 c 2
 421 1237 l 2
 440 1319 431 1346 389 1346 c 0
 347 1346 331 1319 312 1237 c 2
 250 970 l 2
316 174 m 2
 373 420 l 2
 402 546 467 612 570 612 c 0
 673 612 711 546 682 420 c 2
 625 174 l 2
 596 48 528 -18 425 -18 c 0
 322 -18 287 48 316 174 c 2
414 164 m 2
 395 82 399 54 441 54 c 0
 483 54 505 82 524 164 c 2
 586 431 l 2
 605 513 596 540 554 540 c 0
 512 540 495 513 476 431 c 2
 414 164 l 2
894 1395 m 2
 33 5 l 2
 30 1 28 0 24 0 c 2
 -59 0 l 2
 -63 0 -63 1 -60 5 c 2
 802 1395 l 2
 805 1399 807 1400 811 1400 c 2
 893 1400 l 2
 897 1400 897 1399 894 1395 c 2
EndSplineSet
EndChar

StartChar: fraction
Encoding: 8260 8260 128
Width: 510
VWidth: 1920
Flags: HMW
LayerCount: 2
Fore
SplineSet
575 1293 m 2
 627 1262 l 2
 631 1260 631 1264 628 1258 c 10
 39 159 l 18
 36 153 35 153 31 155 c 10
 -23 178 l 18
 -27 180 -25 185 -22 191 c 10
 567 1290 l 18
 570 1296 571 1295 575 1293 c 2
EndSplineSet
EndChar

StartChar: uni2074
Encoding: 8308 8308 129
Width: 279
VWidth: 1920
Flags: HMW
LayerCount: 2
Fore
SplineSet
353 914 m 2
 334 833 l 2
 333 829 331 828 329 828 c 2
 292 828 l 1
 248 636 l 2
 247 632 246 630 244 630 c 2
 163 630 l 2
 161 630 162 632 163 636 c 2
 207 828 l 1
 89 828 l 2
 87 828 85 829 86 833 c 2
 108 928 l 2
 109 932 110 936 113 940 c 2
 358 1464 l 2
 360 1467 363 1470 365 1470 c 2
 438 1470 l 2
 440 1470 440 1468 439 1464 c 2
 313 920 l 1
 350 920 l 2
 352 920 354 918 353 914 c 2
230 920 m 1
 301 1226 l 1
 162 920 l 1
 230 920 l 1
EndSplineSet
EndChar

StartChar: uni2073
Encoding: 8307 8307 130
Width: 311
VWidth: 1920
Flags: HMW
LayerCount: 2
Fore
SplineSet
114 878 m 2
 194 878 l 2
 196 878 196 876 195 872 c 2
 184 821 l 2
 172 771 162 694 192 694 c 0
 224 694 257 778 270 834 c 2
 286 905 l 2
 301 968 305 1027 264 1027 c 2
 240 1027 l 2
 238 1027 237 1029 238 1033 c 2
 255 1105 l 2
 256 1109 257 1110 259 1110 c 2
 277 1110 l 2
 315 1110 334 1174 347 1231 c 2
 360 1288 l 2
 370 1333 383 1406 355 1406 c 0
 331 1406 308 1334 293 1269 c 2
 279 1207 l 2
 278 1203 276 1201 274 1201 c 2
 197 1201 l 2
 195 1201 195 1203 196 1207 c 2
 210 1271 l 2
 240 1402 292 1490 376 1490 c 0
 460 1490 477 1416 447 1287 c 2
 440 1254 l 2
 407 1110 349 1060 268 1060 c 1
 280 1089 l 1
 361 1089 401 1033 368 889 c 2
 355 832 l 2
 323 693 263 610 168 610 c 0
 87 610 67 688 97 819 c 2
 109 872 l 2
 110 876 112 878 114 878 c 2
EndSplineSet
EndChar

StartChar: uni2072
Encoding: 8306 8306 131
Width: 264
VWidth: 1920
Flags: HMW
LayerCount: 2
Fore
SplineSet
54 688 m 2
 128 1009 294 1077 334 1250 c 2
 343 1290 l 2
 355 1344 363 1396 338 1396 c 0
 310 1396 292 1328 274 1250 c 2
 257 1177 l 2
 256 1173 254 1171 252 1171 c 2
 175 1171 l 2
 173 1171 174 1173 175 1177 c 2
 191 1248 l 2
 227 1404 283 1497 366 1497 c 0
 443 1497 456 1420 425 1287 c 2
 417 1252 l 2
 362 1013 216 984 161 746 c 2
 160 740 l 1
 298 740 l 2
 300 740 300 738 299 734 c 2
 278 643 l 2
 277 639 276 637 274 637 c 2
 45 637 l 2
 43 637 42 639 43 643 c 2
 54 688 l 2
EndSplineSet
EndChar

StartChar: uni2070
Encoding: 8304 8304 132
Width: 341
VWidth: 1920
Flags: HMW
LayerCount: 2
Fore
SplineSet
136 905 m 6
 203 1196 l 6
 245 1379 296 1490 395 1490 c 4
 494 1490 493 1379 451 1196 c 6
 384 905 l 6
 342 721 291 610 192 610 c 4
 93 610 94 721 136 905 c 6
224 916 m 6
 193 780 177 705 214 705 c 4
 251 705 269 780 300 916 c 6
 363 1185 l 6
 394 1321 410 1395 373 1395 c 4
 336 1395 318 1321 287 1185 c 6
 224 916 l 6
EndSplineSet
EndChar

StartChar: uni2075
Encoding: 8309 8309 133
Width: 333
VWidth: 1920
Flags: HMW
LayerCount: 2
Fore
SplineSet
125 844 m 2
 199 844 l 2
 201 844 201 842 200 838 c 0
 186 760 168 685 204 685 c 0
 241 685 266 763 289 861 c 2
 308 945 l 2
 330 1039 346 1120 314 1120 c 0
 294 1120 272 1061 254 1013 c 0
 252 1008 251 1008 249 1008 c 2
 169 1008 l 2
 167 1008 166 1008 168 1013 c 2
 302 1457 l 2
 304 1461 306 1463 308 1463 c 2
 493 1463 l 2
 495 1463 495 1461 494 1457 c 2
 487 1427 l 2
 478 1386 467 1379 414 1379 c 2
 355 1379 l 1
 254 1066 l 1
 244 1066 l 1
 277 1144 303 1212 362 1212 c 0
 428 1212 435 1120 391 931 c 2
 378 876 l 2
 335 690 279 603 184 603 c 0
 102 603 92 689 121 838 c 0
 122 842 123 844 125 844 c 2
EndSplineSet
EndChar

StartChar: uni2076
Encoding: 8310 8310 134
Width: 326
VWidth: 1920
Flags: HMW
LayerCount: 2
Fore
SplineSet
293 1086 m 0
 269 1086 247 1050 227 964 c 2
 209 890 l 1
 202 945 l 1
 232 1076 284 1174 334 1174 c 0
 399 1174 414 1100 382 961 c 2
 347 811 l 2
 316 676 265 611 178 611 c 0
 85 611 89 698 131 879 c 2
 207 1210 l 2
 250 1398 295 1490 387 1490 c 0
 467 1490 465 1393 440 1284 c 2
 433 1250 l 2
 432 1246 430 1244 428 1244 c 2
 354 1244 l 2
 352 1244 352 1246 353 1250 c 2
 368 1317 l 2
 379 1366 386 1398 363 1398 c 0
 332 1398 315 1343 279 1189 c 2
 197 838 l 2
 176 748 168 702 201 702 c 0
 229 702 248 752 267 836 c 2
 292 944 l 2
 312 1030 319 1086 293 1086 c 0
EndSplineSet
EndChar

StartChar: uni2077
Encoding: 8311 8311 135
Width: 228
VWidth: 1920
Flags: HMW
LayerCount: 2
Fore
SplineSet
435 1464 m 2
 154 636 l 2
 152 632 150 630 148 630 c 2
 61 630 l 2
 59 630 59 632 61 636 c 2
 316 1369 l 1
 212 1369 l 2
 210 1369 209 1371 210 1375 c 2
 231 1464 l 2
 232 1468 233 1470 235 1470 c 2
 434 1470 l 2
 436 1470 437 1468 435 1464 c 2
EndSplineSet
EndChar

StartChar: uni2078
Encoding: 8312 8312 136
Width: 296
VWidth: 1920
Flags: HMW
LayerCount: 2
Fore
SplineSet
183 679 m 0
 206 679 221 699 230 736 c 2
 283 968 l 2
 292 1005 286 1026 263 1026 c 0
 240 1026 228 1005 219 968 c 2
 166 736 l 2
 157 699 160 679 183 679 c 0
279 1096 m 0
 298 1096 312 1109 320 1142 c 2
 373 1374 l 2
 380 1405 373 1421 354 1421 c 0
 340 1421 325 1405 318 1374 c 2
 265 1142 l 2
 257 1109 264 1096 279 1096 c 0
283 1068 m 1
 364 1068 383 1026 366 954 c 2
 314 729 l 2
 296 653 265 611 167 611 c 0
 71 611 60 653 78 729 c 2
 130 954 l 2
 147 1026 185 1068 264 1068 c 1
 262 1056 l 1
 187 1058 168 1093 184 1163 c 2
 233 1378 l 2
 249 1448 295 1489 370 1489 c 0
 447 1489 475 1448 459 1378 c 2
 410 1163 l 2
 394 1093 356 1058 279 1056 c 1
 283 1068 l 1
EndSplineSet
EndChar

StartChar: uni2079
Encoding: 8313 8313 137
Width: 272
VWidth: 1920
Flags: HMW
LayerCount: 2
Fore
SplineSet
251 1014 m 0
 275 1014 297 1050 317 1136 c 2
 334 1210 l 1
 341 1155 l 1
 311 1024 259 926 209 926 c 0
 144 926 130 1000 162 1139 c 2
 197 1289 l 2
 228 1424 279 1489 366 1489 c 0
 459 1489 455 1402 413 1221 c 2
 336 890 l 2
 293 702 248 610 148 610 c 0
 60 610 59 707 84 816 c 2
 92 850 l 2
 93 854 95 856 97 856 c 2
 171 856 l 2
 173 856 173 854 172 850 c 2
 157 783 l 2
 146 734 140 702 172 702 c 0
 212 702 229 757 265 911 c 2
 346 1262 l 2
 367 1352 376 1398 343 1398 c 0
 315 1398 296 1348 277 1264 c 2
 252 1156 l 2
 232 1070 225 1014 251 1014 c 0
EndSplineSet
EndChar

StartChar: uni00B9
Encoding: 185 185 138
Width: 258
VWidth: 1920
Flags: HMW
LayerCount: 2
Fore
SplineSet
308 1463 m 0
 327 1464 348 1475 357 1501 c 0
 358 1505 360 1507 362 1507 c 2
 396 1507 l 2
 398 1507 400 1505 399 1501 c 2
 201 646 l 2
 200 642 198 640 196 640 c 2
 118 640 l 2
 116 640 114 642 115 646 c 2
 302 1456 l 2
 303 1460 306 1463 308 1463 c 0
EndSplineSet
EndChar

StartChar: cent
Encoding: 162 162 154
Width: 373
VWidth: 1920
Flags: HMW
LayerCount: 2
Fore
SplineSet
355 1240 m 6
 385 1240 l 6
 389 1240 390 1239 389 1235 c 6
 61 -185 l 6
 60 -189 59 -190 55 -190 c 6
 25 -190 l 6
 21 -190 20 -189 21 -185 c 6
 349 1235 l 6
 350 1239 351 1240 355 1240 c 6
EndSplineSet
Refer: 40 99 N 1 0 0 1 0 0 2
EndChar

StartChar: uni203D
Encoding: 8253 8253 157
Width: 534
VWidth: 1920
Flags: HMW
LayerCount: 2
Fore
SplineSet
294 935 m 2
 352 1185 l 2
 354 1192 356 1195 363 1195 c 2
 462 1195 l 2
 469 1195 471 1192 469 1185 c 2
 411 935 l 2
 409 928 408 922 405 915 c 2
 266 441 l 2
 263 434 260 431 253 431 c 2
 228 431 l 2
 221 431 210 434 211 441 c 2
 289 915 l 2
 290 922 292 928 294 935 c 2
174 0 m 2
 70 0 l 2
 63 0 60 3 62 10 c 2
 111 219 l 2
 113 226 116 229 123 229 c 2
 227 229 l 2
 234 229 237 226 235 219 c 2
 186 10 l 2
 184 3 181 0 174 0 c 2
272 431 m 2
 224 431 l 2
 220 431 226 433 227 436 c 0
 246 611 391 626 473 982 c 2
 520 1185 l 2
 534 1244 529 1334 449 1334 c 0
 366 1334 321 1240 306 1176 c 2
 250 936 l 2
 249 932 249 931 245 931 c 2
 147 931 l 2
 143 931 141 932 142 936 c 2
 195 1166 l 2
 225 1294 308 1423 477 1423 c 0
 627 1423 670 1305 641 1181 c 2
 600 1004 l 2
 528 690 358 643 279 436 c 0
 278 433 275 431 272 431 c 2
EndSplineSet
EndChar

StartChar: ordfeminine
Encoding: 170 170 159
Width: 372
VWidth: 1920
Flags: HMW
LayerCount: 2
Fore
SplineSet
190 841 m 0
 168 745 168 693 200 693 c 0
 239 693 287 810 318 946 c 1
 328 893 l 1
 296 753 241 609 155 609 c 0
 83 609 73 698 105 836 c 0
 141 992 205 1053 294 1101 c 0
 337 1124 368 1162 386 1238 c 1
 385 1152 l 1
 372 1095 359 1074 307 1042 c 0
 265 1016 217 959 190 841 c 0
294 842 m 2
 391 1262 l 2
 409 1339 423 1409 388 1409 c 0
 352 1409 334 1358 304 1226 c 0
 303 1220 302 1217 298 1217 c 2
 222 1217 l 2
 218 1217 219 1220 220 1226 c 0
 268 1381 298 1489 409 1489 c 0
 519 1489 514 1395 467 1190 c 2
 386 842 l 2
 365 753 361 691 369 651 c 0
 370 646 371 644 367 644 c 2
 283 644 l 2
 279 644 277 646 276 650 c 0
 268 691 273 752 294 842 c 2
EndSplineSet
EndChar

StartChar: exclamdown
Encoding: 161 161 160
Width: 290
VWidth: 1920
Flags: HMW
LayerCount: 2
Fore
SplineSet
216 1050 m 2
 319 1050 l 2
 326 1050 329 1047 327 1040 c 2
 279 831 l 2
 277 824 274 821 267 821 c 2
 164 821 l 2
 157 821 154 824 156 831 c 2
 204 1040 l 2
 206 1047 209 1050 216 1050 c 2
114 100 m 2
 1 -390 l 2
 -1 -397 -4 -400 -11 -400 c 2
 -122 -400 l 2
 -129 -400 -132 -397 -130 -390 c 2
 -17 100 l 2
 -15 107 -14 113 -11 120 c 2
 137 601 l 2
 140 608 143 611 150 611 c 2
 183 611 l 2
 190 611 193 608 192 601 c 2
 118 120 l 2
 117 113 116 107 114 100 c 2
EndSplineSet
EndChar

StartChar: AE
Encoding: 198 198 161
Width: 753
VWidth: 1920
Flags: HMW
LayerCount: 2
Fore
SplineSet
171 498 m 1
 429 498 l 1
 429 417 l 1
 171 417 l 1
 171 498 l 1
623 1400 m 5
 -7 10 l 6
 -12 4 -15 0 -22 0 c 6
 -96 0 l 6
 -103 0 -105 5 -101 10 c 6
 527 1390 l 6
 531 1395 535 1400 542 1400 c 6
 623 1400 l 5
EndSplineSet
Refer: 16 69 N 1 0 0 1 314 0 2
EndChar

StartChar: questiondown
Encoding: 191 191 162
Width: 421
VWidth: 1920
Flags: HMW
LayerCount: 2
Fore
SplineSet
310 1050 m 2
 414 1050 l 2
 421 1050 424 1047 422 1040 c 2
 374 831 l 2
 372 824 369 821 362 821 c 2
 258 821 l 2
 251 821 248 824 250 831 c 2
 298 1040 l 2
 300 1047 303 1050 310 1050 c 2
229 646 m 2
 287 646 l 2
 291 646 293 645 292 642 c 0
 273 470 151 443 67 81 c 2
 18 -132 l 2
 3 -196 -12 -285 32 -285 c 0
 78 -285 102 -194 118 -124 c 2
 168 93 l 2
 169 97 170 98 174 98 c 2
 273 98 l 2
 277 98 278 97 277 93 c 2
 226 -129 l 2
 199 -245 139 -373 6 -373 c 0
 -113 -373 -132 -254 -106 -140 c 2
 -59 64 l 2
 11 368 143 436 222 642 c 0
 223 645 226 646 229 646 c 2
EndSplineSet
EndChar

StartChar: yen
Encoding: 165 165 163
Width: 465
VWidth: 1920
Flags: HMW
LayerCount: 2
Fore
SplineSet
24 475 m 14
 36 527 l 22
 37 531 37 532 41 532 c 14
 430 532 l 22
 434 532 435 531 434 527 c 14
 422 475 l 22
 421 471 420 470 416 470 c 14
 27 470 l 22
 23 470 23 471 24 475 c 14
55 610 m 14
 67 662 l 22
 68 666 68 667 72 667 c 14
 461 667 l 22
 465 667 466 666 465 662 c 14
 453 610 l 22
 452 606 451 605 447 605 c 14
 58 605 l 22
 54 605 54 606 55 610 c 14
EndSplineSet
Refer: 36 89 N 1 0 0 1 0 0 2
EndChar

StartChar: gravecomb
Encoding: 768 768 164
Width: 0
Flags: HMW
AnchorPoint: "top" -500 1000 mark 0
LayerCount: 2
Fore
SplineSet
-421 1104 m 6
 -480 1104 l 6
 -484 1104 -487 1109 -488 1114 c 6
 -568 1390 l 6
 -569 1395 -570 1400 -566 1400 c 6
 -439 1400 l 6
 -435 1400 -433 1397 -433 1390 c 6
 -417 1114 l 6
 -417 1107 -417 1104 -421 1104 c 6
EndSplineSet
EndChar

StartChar: acutecomb
Encoding: 769 769 165
Width: 0
Flags: HMW
AnchorPoint: "top" -437 1000 mark 0
LayerCount: 2
Fore
SplineSet
-420 1104 m 6
 -424 1104 -424 1107 -420 1114 c 6
 -276 1390 l 6
 -272 1397 -270 1400 -266 1400 c 6
 -139 1400 l 6
 -135 1400 -138 1395 -141 1390 c 6
 -349 1114 l 6
 -352 1109 -357 1104 -361 1104 c 6
 -420 1104 l 6
EndSplineSet
EndChar

StartChar: uni0302
Encoding: 770 770 166
Width: 0
VWidth: 1920
Flags: HMW
AnchorPoint: "top" -446 1000 mark 0
LayerCount: 2
Fore
SplineSet
-381 1288 m 5
 -491 1110 l 6
 -494 1105 -498 1100 -502 1100 c 6
 -565 1100 l 6
 -569 1100 -569 1104 -566 1110 c 6
 -410 1390 l 6
 -405 1398 -405 1400 -401 1400 c 6
 -308 1400 l 6
 -304 1400 -304 1398 -303 1390 c 6
 -272 1110 l 6
 -271 1104 -271 1100 -277 1100 c 6
 -340 1100 l 6
 -345 1100 -346 1105 -347 1110 c 6
 -381 1288 l 5
EndSplineSet
EndChar

StartChar: tildecomb
Encoding: 771 771 167
Width: 0
Flags: HMW
AnchorPoint: "top" -461 1000 mark 0
LayerCount: 2
Fore
SplineSet
-468 1238 m 4
 -498 1238 -502 1191 -513 1152 c 4
 -514 1146 -517 1143 -520 1143 c 6
 -577 1143 l 6
 -581 1143 -581 1146 -580 1152 c 4
 -553 1259 -504 1310 -450 1310 c 4
 -374 1310 -381 1188 -342 1188 c 4
 -312 1188 -305 1246 -294 1284 c 4
 -292 1291 -289 1294 -286 1294 c 6
 -230 1294 l 6
 -226 1294 -226 1291 -228 1284 c 4
 -255 1177 -304 1128 -358 1128 c 4
 -434 1128 -429 1238 -468 1238 c 4
EndSplineSet
EndChar

StartChar: uni0304
Encoding: 772 772 168
Width: 0
VWidth: 1920
Flags: HMW
AnchorPoint: "top" -449 1000 mark 0
LayerCount: 2
Fore
SplineSet
-534 1217 m 14
 -519 1280 l 22
 -518 1284 -517 1285 -513 1285 c 14
 -253 1285 l 22
 -249 1285 -248 1284 -249 1280 c 14
 -264 1217 l 22
 -265 1213 -266 1212 -270 1212 c 14
 -530 1212 l 22
 -534 1212 -535 1213 -534 1217 c 14
EndSplineSet
EndChar

StartChar: uni0306
Encoding: 774 774 169
Width: 0
VWidth: 1920
Flags: HMW
AnchorPoint: "top" -449 1000 mark 0
LayerCount: 2
Fore
SplineSet
-380 1301 m 4
 -328 1301 -290 1334 -281 1374 c 4
 -280 1378 -279 1380 -275 1380 c 6
 -208 1380 l 6
 -204 1380 -203 1379 -205 1372 c 4
 -230 1283 -292 1223 -398 1223 c 4
 -504 1223 -539 1284 -521 1374 c 4
 -520 1378 -518 1380 -514 1380 c 6
 -447 1380 l 6
 -443 1380 -444 1379 -445 1373 c 4
 -454 1332 -431 1301 -380 1301 c 4
EndSplineSet
EndChar

StartChar: uni0307
Encoding: 775 775 170
Width: 0
Flags: HMW
AnchorPoint: "top" -404 1148 mark 0
LayerCount: 2
Fore
SplineSet
-335 1218 m 6
 -443 1218 l 6
 -447 1218 -446 1220 -445 1224 c 6
 -422 1327 l 6
 -421 1331 -420 1333 -416 1333 c 6
 -308 1333 l 6
 -304 1333 -305 1331 -306 1327 c 6
 -329 1224 l 6
 -330 1220 -331 1218 -335 1218 c 6
EndSplineSet
EndChar

StartChar: uni0308
Encoding: 776 776 171
Width: 0
Flags: HMW
AnchorPoint: "top" -437 1000 mark 0
LayerCount: 2
Fore
SplineSet
-447 1122 m 6
 -549 1122 l 6
 -553 1122 -553 1124 -552 1128 c 6
 -528 1231 l 6
 -527 1235 -526 1237 -522 1237 c 6
 -420 1237 l 6
 -416 1237 -416 1235 -417 1231 c 6
 -441 1128 l 6
 -442 1124 -443 1122 -447 1122 c 6
-266 1122 m 6
 -367 1122 l 6
 -371 1122 -372 1124 -371 1128 c 6
 -347 1231 l 6
 -346 1235 -344 1237 -340 1237 c 6
 -239 1237 l 6
 -235 1237 -235 1235 -236 1231 c 6
 -260 1128 l 6
 -261 1124 -262 1122 -266 1122 c 6
EndSplineSet
EndChar

StartChar: uni030A
Encoding: 778 778 172
Width: 0
Flags: HMW
AnchorPoint: "top" -554 1000 mark 0
LayerCount: 2
Fore
SplineSet
-408 1214 m 4
 -408 1162 -452 1120 -504 1120 c 4
 -557 1120 -602 1161 -602 1214 c 4
 -602 1265 -557 1310 -504 1310 c 4
 -451 1310 -408 1268 -408 1214 c 4
-454 1214 m 4
 -454 1242 -477 1262 -504 1262 c 4
 -531 1262 -554 1239 -554 1214 c 4
 -554 1187 -531 1166 -504 1166 c 4
 -478 1166 -454 1189 -454 1214 c 4
EndSplineSet
EndChar

StartChar: uni030B
Encoding: 779 779 173
Width: 0
Flags: HMW
AnchorPoint: "top" -431 1000 mark 0
LayerCount: 2
Fore
SplineSet
-353 1104 m 6
 -357 1104 -357 1107 -353 1114 c 6
 -209 1390 l 6
 -205 1397 -203 1400 -199 1400 c 6
 -72 1400 l 6
 -68 1400 -71 1395 -74 1390 c 6
 -282 1114 l 6
 -285 1109 -290 1104 -294 1104 c 6
 -353 1104 l 6
-530 1104 m 6
 -534 1104 -534 1107 -530 1114 c 6
 -385 1390 l 6
 -381 1397 -379 1400 -375 1400 c 6
 -253 1400 l 6
 -249 1400 -252 1395 -255 1390 c 6
 -458 1114 l 6
 -461 1109 -466 1104 -470 1104 c 6
 -530 1104 l 6
EndSplineSet
EndChar

StartChar: uni030C
Encoding: 780 780 174
Width: 0
Flags: HMW
AnchorPoint: "top" -443 1000 mark 0
LayerCount: 2
Fore
SplineSet
-389 1233 m 5
 -279 1410 l 6
 -276 1415 -271 1420 -267 1420 c 6
 -205 1420 l 6
 -201 1420 -201 1416 -204 1410 c 6
 -360 1130 l 6
 -365 1122 -365 1120 -369 1120 c 6
 -461 1120 l 6
 -465 1120 -465 1122 -466 1130 c 6
 -497 1410 l 6
 -498 1416 -498 1420 -492 1420 c 6
 -430 1420 l 6
 -425 1420 -423 1415 -422 1410 c 6
 -389 1233 l 5
EndSplineSet
EndChar

StartChar: uni030F
Encoding: 783 783 175
Width: 0
Flags: HMW
AnchorPoint: "top" -460 1000 mark 0
LayerCount: 2
Fore
SplineSet
-303 1104 m 6
 -363 1104 l 6
 -367 1104 -370 1109 -371 1114 c 6
 -444 1390 l 6
 -445 1395 -446 1400 -442 1400 c 6
 -322 1400 l 6
 -318 1400 -316 1397 -316 1390 c 6
 -299 1114 l 6
 -299 1107 -299 1104 -303 1104 c 6
-478 1104 m 6
 -538 1104 l 6
 -542 1104 -545 1109 -546 1114 c 6
 -625 1390 l 6
 -626 1395 -627 1400 -623 1400 c 6
 -497 1400 l 6
 -493 1400 -491 1397 -491 1390 c 6
 -474 1114 l 6
 -474 1107 -474 1104 -478 1104 c 6
EndSplineSet
EndChar

StartChar: uni0311
Encoding: 785 785 176
Width: 0
Flags: HMW
AnchorPoint: "top" -458 1152 mark 0
LayerCount: 2
Fore
SplineSet
-422 1309 m 4
 -474 1309 -512 1276 -521 1236 c 4
 -522 1232 -523 1230 -527 1230 c 6
 -593 1230 l 6
 -597 1230 -597 1232 -596 1238 c 4
 -571 1327 -510 1387 -404 1387 c 4
 -298 1387 -263 1326 -281 1236 c 4
 -282 1232 -283 1230 -287 1230 c 6
 -354 1230 l 6
 -358 1230 -358 1231 -357 1237 c 4
 -348 1278 -371 1309 -422 1309 c 4
EndSplineSet
EndChar

StartChar: dotbelowcomb
Encoding: 803 803 177
Width: 0
Flags: HMW
AnchorPoint: "bottom" -671 0 mark 0
LayerCount: 2
Fore
SplineSet
-688 -310 m 6
 -796 -310 l 6
 -800 -310 -799 -308 -798 -304 c 6
 -774 -200 l 6
 -773 -196 -773 -194 -769 -194 c 6
 -661 -194 l 6
 -657 -194 -657 -196 -658 -200 c 6
 -682 -304 l 6
 -683 -308 -684 -310 -688 -310 c 6
EndSplineSet
EndChar

StartChar: uni0326
Encoding: 806 806 178
Width: 0
Flags: HMW
AnchorPoint: "bottom" -681 0 mark 0
LayerCount: 2
Fore
SplineSet
-845 -467 m 6
 -863 -467 l 6
 -867 -467 -867 -466 -864 -462 c 6
 -785 -360 l 5
 -823 -360 l 6
 -827 -360 -828 -359 -827 -355 c 6
 -803 -250 l 6
 -802 -246 -801 -245 -797 -245 c 6
 -690 -245 l 6
 -686 -245 -685 -246 -686 -250 c 6
 -709 -350 l 6
 -710 -354 -710 -356 -715 -360 c 6
 -834 -462 l 6
 -838 -466 -841 -467 -845 -467 c 6
EndSplineSet
EndChar

StartChar: uni0327
Encoding: 807 807 179
Width: 1200
Flags: HMW
AnchorPoint: "bottom" -631 0 mark 0
LayerCount: 2
Fore
SplineSet
-846 -501 m 4
 -890 -501 -917 -492 -939 -473 c 4
 -943 -469 -944 -470 -940 -464 c 6
 -909 -409 l 6
 -906 -403 -907 -404 -902 -406 c 4
 -877 -422 -856 -426 -830 -426 c 4
 -786 -426 -754 -416 -734 -330 c 4
 -715 -248 -746 -232 -813 -231 c 4
 -820 -231 -819 -232 -820 -226 c 6
 -824 -206 l 6
 -825 -200 -822 -199 -819 -195 c 6
 -633 34 l 5
 -549 34 l 5
 -739 -193 l 5
 -731 -191 -721 -188 -713 -188 c 4
 -670 -188 -622 -211 -649 -330 c 4
 -681 -467 -766 -501 -846 -501 c 4
EndSplineSet
EndChar

StartChar: uni0328
Encoding: 808 808 180
Width: 1200
Flags: HMW
AnchorPoint: "ogonek" -671 0 mark 0
LayerCount: 2
Fore
SplineSet
-724 -308 m 6
 -743 -388 l 6
 -744 -392 -745 -393 -749 -393 c 6
 -789 -393 l 6
 -882 -393 -935 -333 -909 -220 c 4
 -881 -97 -792 -45 -658 38 c 5
 -637 0 l 5
 -740 -68 -794 -105 -815 -196 c 4
 -832 -268 -805 -302 -763 -302 c 6
 -728 -302 l 6
 -724 -302 -723 -304 -724 -308 c 6
EndSplineSet
EndChar

StartChar: uni0312
Encoding: 786 786 181
Width: 0
Flags: HMW
AnchorPoint: "top" -505 950 mark 0
LayerCount: 2
Fore
SplineSet
-304 1462 m 6
 -295 1462 l 6
 -288 1462 -286 1460 -291 1452 c 6
 -407 1240 l 5
 -370 1240 l 6
 -361 1240 -360 1239 -362 1230 c 6
 -410 1021 l 6
 -412 1014 -416 1011 -423 1011 c 6
 -526 1011 l 6
 -533 1011 -535 1014 -533 1021 c 6
 -487 1223 l 6
 -485 1230 -485 1232 -479 1240 c 6
 -324 1452 l 6
 -318 1461 -312 1462 -304 1462 c 6
EndSplineSet
EndChar

StartChar: sterling
Encoding: 163 163 182
Width: 487
VWidth: 1920
Flags: HMW
LayerCount: 2
Fore
SplineSet
91 657 m 10
 105 718 l 18
 106 722 107 722 111 722 c 10
 383 722 l 18
 387 722 388 722 387 718 c 10
 373 657 l 18
 372 653 371 653 367 653 c 10
 95 653 l 18
 91 653 90 653 91 657 c 10
-58 90 m 0
 16 156 128 369 182 604 c 0
 228 803 158 907 203 1100 c 0
 251 1306 308 1417 455 1417 c 0
 605 1417 604 1289 531 967 c 0
 530 963 529 963 525 963 c 2
 431 963 l 2
 428 963 426 963 427 967 c 0
 481 1210 512 1334 441 1334 c 0
 371 1334 352 1272 313 1105 c 0
 276 945 331 819 282 606 c 0
 230 382 110 142 38 90 c 1
 337 90 l 2
 341 90 341 88 340 84 c 2
 322 5 l 2
 321 1 320 0 316 0 c 2
 -76 0 l 2
 -80 0 -81 1 -80 5 c 2
 -62 84 l 2
 -62 86 -60 88 -58 90 c 0
EndSplineSet
EndChar

StartChar: currency
Encoding: 164 164 183
Width: 1045
Flags: HMW
LayerCount: 2
Fore
SplineSet
819 960 m 10
 860 908 l 18
 862 906 860 903 858 901 c 10
 758 819 l 18
 756 817 753 817 751 819 c 10
 710 871 l 18
 708 873 710 877 712 879 c 10
 812 960 l 18
 814 962 817 962 819 960 c 10
371 596 m 10
 412 544 l 18
 414 542 412 538 410 536 c 10
 310 455 l 18
 308 453 305 453 303 455 c 10
 262 507 l 18
 260 509 262 512 264 514 c 10
 364 596 l 18
 366 598 369 598 371 596 c 10
355 908 m 10
 420 960 l 18
 422 962 425 962 427 960 c 10
 489 879 l 18
 491 877 489 873 487 871 c 10
 422 819 l 18
 420 817 417 817 415 819 c 10
 353 901 l 18
 351 903 353 906 355 908 c 10
635 544 m 10
 694 592 l 18
 696 594 705 598 707 596 c 10
 769 514 l 18
 771 512 769 509 767 507 c 10
 702 455 l 18
 700 453 697 453 695 455 c 10
 633 536 l 18
 631 538 633 542 635 544 c 10
317 709 m 0
 348 843 485 954 619 954 c 0
 753 954 838 843 807 709 c 0
 776 575 640 464 506 464 c 0
 372 464 286 575 317 709 c 0
410 709 m 0
 390 621 438 552 526 552 c 0
 614 552 695 621 715 709 c 0
 735 797 687 866 599 866 c 0
 511 866 430 797 410 709 c 0
EndSplineSet
EndChar

StartChar: brokenbar
Encoding: 166 166 184
Width: 395
VWidth: 1920
Flags: HMW
LayerCount: 2
Fore
SplineSet
137 430 m 10
 218 430 l 18
 222 430 223 427 221 420 c 10
 43 -350 l 18
 41 -357 40 -360 36 -360 c 10
 -45 -360 l 18
 -49 -360 -51 -357 -49 -350 c 10
 129 420 l 18
 131 427 133 430 137 430 c 10
407 1600 m 10
 488 1600 l 18
 492 1600 493 1597 491 1590 c 10
 313 820 l 18
 311 813 310 810 306 810 c 10
 225 810 l 18
 221 810 219 813 221 820 c 10
 399 1590 l 18
 401 1597 403 1600 407 1600 c 10
EndSplineSet
EndChar

StartChar: section
Encoding: 167 167 185
Width: 561
VWidth: 1920
Flags: HMW
LayerCount: 2
Fore
SplineSet
333 853 m 1
 265 853 196 745 169 627 c 0
 133 473 143 390 210 286 c 0
 293 157 344 77 307 -84 c 0
 264 -272 168 -397 51 -397 c 0
 -67 -397 -87 -266 -45 -54 c 0
 -44 -48 -42 -45 -38 -45 c 2
 38 -45 l 2
 42 -45 42 -48 40 -55 c 0
 17 -185 4 -311 69 -311 c 0
 127 -311 172 -238 202 -107 c 0
 232 25 198 78 140 165 c 0
 41 316 30 449 63 592 c 0
 112 803 219 907 351 907 c 1
 333 853 l 1
226 183 m 1
 294 183 364 290 391 408 c 0
 417 519 417 645 350 749 c 0
 267 878 217 959 254 1120 c 0
 297 1308 392 1433 509 1433 c 0
 627 1433 648 1302 606 1090 c 0
 605 1084 603 1081 599 1081 c 2
 523 1081 l 2
 519 1081 518 1084 520 1091 c 0
 545 1230 556 1346 491 1346 c 0
 433 1346 384 1257 358 1143 c 0
 328 1011 362 958 420 871 c 0
 519 720 533 596 498 444 c 0
 449 233 341 129 209 129 c 1
 226 183 l 1
EndSplineSet
EndChar

StartChar: copyright
Encoding: 169 169 186
Width: 844
Flags: HMW
LayerCount: 2
Fore
SplineSet
559 613 m 0
 498 348 473 240 346 240 c 0
 242 240 252 327 284 466 c 2
 378 876 l 2
 412 1024 457 1102 548 1102 c 0
 667 1102 640 978 592 771 c 0
 592 769 590 768 588 768 c 2
 535 768 l 2
 533 768 533 769 533 771 c 0
 580 981 586 1045 542 1045 c 0
 498 1045 476 990 450 879 c 2
 353 460 l 2
 330 361 320 297 364 297 c 0
 410 297 435 337 500 613 c 0
 500 615 501 616 503 616 c 2
 556 616 l 2
 558 616 559 615 559 613 c 0
803 668 m 0
 714 284 609 -28 295 -28 c 0
 -19 -28 20 284 109 668 c 0
 198 1052 302 1366 616 1366 c 0
 930 1366 892 1052 803 668 c 0
757 668 m 0
 835 1006 894 1320 606 1320 c 0
 318 1320 233 1006 155 668 c 0
 77 330 17 18 305 18 c 0
 593 18 679 330 757 668 c 0
EndSplineSet
EndChar

StartChar: registered
Encoding: 174 174 188
Width: 844
Flags: HMW
LayerCount: 2
Fore
SplineSet
512 1065 m 1
 433 723 l 1
 455 723 l 2
 491 723 511 748 526 814 c 2
 563 973 l 2
 578 1039 570 1065 534 1065 c 2
 512 1065 l 1
547 1118 m 2
 629 1118 656 1074 632 968 c 2
 601 831 l 2
 576 724 522 688 448 688 c 1
 452 706 l 1
 527 706 564 684 546 607 c 2
 501 412 l 2
 481 325 488 316 497 296 c 0
 498 292 498 292 498 290 c 2
 496 280 l 2
 496 278 494 278 492 278 c 2
 427 278 l 2
 425 278 425 278 423 280 c 0
 413 309 414 331 433 412 c 2
 481 620 l 2
 489 654 485 674 444 674 c 2
 422 674 l 1
 331 280 l 2
 331 278 329 278 327 278 c 2
 265 278 l 2
 263 278 263 278 263 280 c 2
 455 1114 l 2
 455 1116 457 1118 459 1118 c 2
 547 1118 l 2
803 668 m 0
 714 284 609 -28 295 -28 c 0
 -19 -28 20 284 109 668 c 0
 198 1052 302 1366 616 1366 c 0
 930 1366 892 1052 803 668 c 0
757 668 m 0
 835 1006 894 1320 606 1320 c 0
 318 1320 233 1006 155 668 c 0
 77 330 17 18 305 18 c 0
 593 18 679 330 757 668 c 0
EndSplineSet
EndChar

StartChar: dotlessi
Encoding: 305 305 279
Width: 233
VWidth: 960
Flags: HMW
AnchorPoint: "top" 237 1050 basechar 0
LayerCount: 2
Fore
SplineSet
295 1045 m 2
 55 5 l 2
 54 1 53 0 49 0 c 2
 -55 0 l 2
 -59 0 -60 1 -59 5 c 2
 181 1045 l 2
 182 1049 183 1050 187 1050 c 2
 291 1050 l 2
 295 1050 296 1049 295 1045 c 2
EndSplineSet
EndChar

StartChar: uni0237
Encoding: 567 567 291
Width: 233
VWidth: 960
Flags: HMW
AnchorPoint: "top" 236 1050 basechar 0
LayerCount: 2
Fore
SplineSet
40 -59 m 2
 -9 -271 -66 -371 -165 -371 c 0
 -284 -371 -235 -200 -200 -107 c 0
 -198 -102 -195 -100 -188 -100 c 2
 -142 -100 l 2
 -135 -100 -132 -103 -134 -107 c 0
 -170 -201 -179 -284 -159 -284 c 0
 -141 -284 -103 -185 -74 -60 c 2
 180 1040 l 2
 182 1047 185 1050 192 1050 c 2
 286 1050 l 2
 293 1050 296 1047 294 1040 c 2
 40 -59 l 2
EndSplineSet
EndChar

StartChar: kgreenlandic
Encoding: 312 312 298
Width: 416
VWidth: 960
Flags: HMW
LayerCount: 2
Fore
SplineSet
187 1050 m 2
 291 1050 l 2
 295 1050 296 1049 295 1045 c 2
 55 5 l 2
 54 1 52 0 49 0 c 2
 -55 0 l 2
 -59 0 -60 1 -59 5 c 2
 181 1045 l 2
 182 1049 183 1050 187 1050 c 2
108 417 m 1
 418 1045 l 2
 420 1049 423 1050 427 1050 c 2
 525 1050 l 2
 529 1050 531 1050 528 1045 c 2
 124 352 l 1
 108 417 l 1
227 595 m 1
 314 718 l 1
 304 5 l 2
 304 1 304 0 301 0 c 2
 188 0 l 2
 183 0 181 1 181 5 c 2
 227 595 l 1
EndSplineSet
EndChar

StartChar: grave
Encoding: 96 96 339
Width: 320
VWidth: 0
Flags: HMW
LayerCount: 2
Fore
SplineSet
378 1104 m 2
 319 1104 l 2
 315 1104 312 1109 311 1114 c 2
 231 1390 l 2
 230 1395 229 1400 233 1400 c 2
 360 1400 l 2
 364 1400 366 1397 366 1390 c 2
 382 1114 l 2
 382 1107 382 1104 378 1104 c 2
EndSplineSet
EndChar

StartChar: longs
Encoding: 383 383 352
Width: 273
VWidth: 960
Flags: HMW
LayerCount: 2
Fore
SplineSet
267 1334 m 6
 291 1440 324 1477 450 1461 c 4
 455 1460 456 1459 455 1455 c 6
 440 1391 l 6
 439 1388 437 1385 431 1387 c 4
 399 1395 389 1378 375 1318 c 6
 -11 -355 l 6
 -12 -359 -14 -360 -18 -360 c 6
 -119 -360 l 6
 -123 -360 -124 -359 -123 -355 c 6
 267 1334 l 6
EndSplineSet
EndChar

StartChar: uni0259
Encoding: 601 601 359
Width: 407
VWidth: 1800
Flags: HMW
LayerCount: 2
Fore
SplineSet
66 640 m 0
 145 952 178 1068 334 1068 c 0
 474 1068 476 981 439 820 c 2
 303 229 l 2
 267 73 211 -17 75 -17 c 0
 -57 -17 -62 79 -37 200 c 0
 -9 333 9 415 41 555 c 0
 41 557 43 559 47 559 c 2
 307 559 l 1
 293 496 l 1
 138 496 l 1
 53 117 38 56 95 56 c 0
 140 56 161 110 184 209 c 2
 330 841 l 2
 354 947 356 993 312 993 c 0
 263 993 241 933 168 638 c 0
 168 636 166 635 162 635 c 2
 69 635 l 2
 65 635 65 637 66 640 c 0
EndSplineSet
EndChar

StartChar: logicalnot
Encoding: 172 172 373
Width: 596
VWidth: 2048
Flags: HMW
LayerCount: 2
Fore
SplineSet
95 624 m 2
 113 702 l 2
 115 709 116 712 120 712 c 2
 566 712 l 2
 570 712 571 709 569 702 c 2
 486 341 l 2
 484 334 483 332 479 332 c 2
 403 332 l 2
 399 332 398 334 400 341 c 2
 463 614 l 1
 98 614 l 2
 94 614 93 617 95 624 c 2
EndSplineSet
EndChar

StartChar: acute
Encoding: 180 180 374
Width: 319
Flags: HMW
LayerCount: 2
Fore
SplineSet
212 1104 m 2
 208 1104 208 1107 212 1114 c 2
 356 1390 l 2
 360 1397 362 1400 366 1400 c 2
 493 1400 l 2
 497 1400 494 1395 491 1390 c 2
 284 1114 l 2
 281 1109 276 1104 272 1104 c 2
 212 1104 l 2
EndSplineSet
EndChar

StartChar: degree
Encoding: 176 176 376
Width: 446
VWidth: 2048
Flags: HMW
LayerCount: 2
Fore
SplineSet
212 1235 m 2
 216 1252 l 2
 239 1351 336 1417 428 1417 c 0
 520 1417 591 1351 568 1252 c 2
 564 1235 l 2
 541 1136 440 1069 348 1069 c 0
 256 1069 189 1136 212 1235 c 2
301 1230 m 2
 288 1173 319 1141 364 1141 c 0
 409 1141 460 1173 473 1230 c 2
 479 1256 l 2
 492 1313 456 1344 411 1344 c 0
 366 1344 320 1313 307 1256 c 2
 301 1230 l 2
EndSplineSet
EndChar

StartChar: plusminus
Encoding: 177 177 377
Width: 575
Flags: HMW
LayerCount: 2
Fore
SplineSet
50 519 m 10
 68 598 l 18
 69 602 71 603 75 603 c 10
 539 603 l 18
 543 603 545 602 544 598 c 10
 526 519 l 18
 525 515 522 513 518 513 c 10
 54 513 l 18
 50 513 49 515 50 519 c 10
138 901 m 10
 156 981 l 18
 157 985 159 985 163 985 c 10
 627 985 l 18
 631 985 633 985 632 981 c 10
 614 901 l 18
 613 897 611 896 607 896 c 10
 143 896 l 18
 139 896 137 897 138 901 c 10
399 1165 m 10
 475 1165 l 18
 479 1165 481 1163 480 1159 c 10
 376 709 l 18
 375 705 373 705 369 705 c 10
 293 705 l 18
 289 705 287 705 288 709 c 10
 392 1159 l 18
 393 1163 395 1165 399 1165 c 10
EndSplineSet
EndChar

StartChar: ae
Encoding: 230 230 379
Width: 597
VWidth: 960
Flags: HMW
LayerCount: 2
Fore
SplineSet
68 248 m 0
 37 112 48 79 76 79 c 0
 106 79 150 165 173 265 c 1
 214 225 l 1
 184 97 117 -18 30 -18 c 0
 -49 -18 -92 41 -46 242 c 0
 4 460 76 525 183 610 c 0
 223 641 274 699 284 743 c 1
 285 663 l 1
 277 632 221 568 195 539 c 0
 140 479 107 417 68 248 c 0
157 195 m 9
 311 862 l 2
 329 940 340 991 305 991 c 0
 269 991 240 919 190 715 c 0
 189 712 187 710 184 710 c 2
 93 710 l 2
 89 710 88 712 89 715 c 0
 151 970 215 1067 333 1067 c 0
 434 1067 414 988 378 831 c 2
 231 194 l 17
 157 195 l 9
535 410 m 0
 450 77 419 -18 275 -18 c 0
 161 -18 160 69 197 230 c 2
 334 821 l 2
 370 977 414 1067 537 1067 c 0
 660 1067 662 969 636 843 c 0
 610 716 589 630 558 495 c 0
 558 493 557 491 553 491 c 2
 292 491 l 1
 307 554 l 1
 462 554 l 1
 547 933 561 994 504 994 c 0
 459 994 438 940 415 841 c 2
 269 209 l 2
 245 103 243 57 287 57 c 0
 336 57 358 117 431 412 c 0
 431 414 434 415 438 415 c 2
 532 415 l 2
 536 415 536 413 535 410 c 0
EndSplineSet
EndChar

StartChar: paragraph
Encoding: 182 182 380
Width: 559
VWidth: 1920
Flags: HMW
LayerCount: 2
Fore
SplineSet
676 1321 m 1
 290 -350 l 2
 288 -357 287 -360 283 -360 c 2
 206 -360 l 2
 202 -360 201 -357 203 -350 c 2
 589 1321 l 1
 527 1321 l 1
 141 -350 l 2
 139 -357 138 -360 134 -360 c 2
 57 -360 l 2
 53 -360 52 -357 54 -350 c 2
 268 575 l 1
 263 575 l 2
 156 575 84 680 148 956 c 2
 162 1020 l 2
 226 1296 346 1400 453 1400 c 2
 743 1400 l 2
 745 1400 747 1397 745 1390 c 2
 731 1331 l 2
 729 1324 729 1321 725 1321 c 2
 676 1321 l 1
EndSplineSet
EndChar

StartChar: guilsinglleft
Encoding: 8249 8249 381
Width: 630
Flags: HMW
LayerCount: 2
Fore
SplineSet
397 247 m 2
 155 499 l 2
 149 503 147 508 149 515 c 2
 170 605 l 2
 172 612 175 617 183 621 c 2
 535 843 l 2
 543 847 546 846 544 839 c 2
 524 754 l 2
 522 747 519 742 510 738 c 2
 222 555 l 1
 421 352 l 2
 428 348 430 343 428 336 c 2
 408 251 l 2
 406 244 403 243 397 247 c 2
EndSplineSet
EndChar

StartChar: guilsinglright
Encoding: 8250 8250 382
Width: 630
Flags: HW
LayerCount: 2
Fore
SplineSet
245 844 m 2
 489 601 l 2
 495 597 497 592 495 585 c 2
 474 495 l 2
 472 488 469 483 461 479 c 2
 107 248 l 2
 99 244 96 245 98 252 c 2
 118 338 l 2
 120 345 123 350 132 354 c 2
 422 545 l 1
 221 739 l 2
 214 743 212 748 214 755 c 2
 234 840 l 2
 236 847 239 848 245 844 c 2
EndSplineSet
EndChar

StartChar: mu
Encoding: 181 181 385
Width: 409
VWidth: 1920
Flags: HW
LayerCount: 2
Fore
SplineSet
178 1050 m 2
 272 1050 l 2
 279 1050 282 1047 280 1040 c 2
 -41 -350 l 2
 -43 -357 -46 -360 -53 -360 c 2
 -147 -360 l 2
 -154 -360 -157 -357 -155 -350 c 2
 166 1040 l 2
 168 1047 171 1050 178 1050 c 2
234 0 m 2
 135 0 l 2
 131 0 130 1 131 5 c 2
 157 116 l 1
 155 129 l 1
 366 1045 l 2
 367 1049 368 1050 372 1050 c 2
 476 1050 l 2
 480 1050 480 1049 479 1045 c 2
 239 5 l 2
 238 1 238 0 234 0 c 2
181 174 m 1
 155 63 117 -18 73 -18 c 0
 37 -18 -12 43 13 150 c 2
 219 1045 l 2
 220 1049 186 1050 190 1050 c 2
 277 1050 l 2
 281 1050 282 1049 281 1045 c 2
 75 153 l 2
 61 94 61 60 93 60 c 0
 129 60 152 118 176 223 c 1
 181 174 l 1
EndSplineSet
EndChar

StartChar: Eth
Encoding: 208 208 387
Width: 506
VWidth: 1920
Flags: HW
LayerCount: 2
Fore
SplineSet
37 673 m 14
 56 752 l 22
 57 756 57 757 61 757 c 14
 337 757 l 22
 341 757 341 756 340 752 c 14
 321 673 l 22
 320 669 320 668 316 668 c 14
 40 668 l 22
 36 668 36 669 37 673 c 14
EndSplineSet
Refer: 15 68 N 1 0 0 1 0 0 2
EndChar

StartChar: Dcroat
Encoding: 272 272 388
Width: 506
VWidth: 1920
Flags: HW
LayerCount: 2
Fore
SplineSet
37 673 m 14
 56 752 l 22
 57 756 57 757 61 757 c 14
 337 757 l 22
 341 757 341 756 340 752 c 14
 321 673 l 22
 320 669 320 668 316 668 c 14
 40 668 l 22
 36 668 36 669 37 673 c 14
EndSplineSet
Refer: 15 68 N 1 0 0 1 0 0 2
EndChar

StartChar: thorn
Encoding: 254 254 389
Width: 441
VWidth: 960
Flags: HW
LayerCount: 2
Fore
SplineSet
272 1450 m 2
 376 1450 l 2
 380 1450 381 1449 380 1445 c 2
 -36 -355 l 2
 -37 -359 -39 -360 -43 -360 c 2
 -146 -360 l 2
 -150 -360 -152 -359 -151 -355 c 2
 265 1445 l 2
 266 1449 268 1450 272 1450 c 2
214 846 m 1
 247 991 307 1068 388 1068 c 0
 475 1068 509 996 470 826 c 2
 330 223 l 2
 291 53 224 -17 137 -17 c 0
 56 -17 33 60 66 205 c 1
 93 205 l 1
 70 106 65 65 119 65 c 0
 169 65 192 113 215 212 c 2
 360 839 l 2
 383 938 381 985 331 985 c 0
 277 985 264 945 241 846 c 1
 214 846 l 1
EndSplineSet
EndChar

StartChar: Thorn
Encoding: 222 222 390
Width: 456
VWidth: 1800
Flags: HW
LayerCount: 2
Fore
SplineSet
353 1136 m 2
 477 1136 541 1093 491 878 c 2
 429 612 l 2
 379 396 297 354 177 354 c 2
 154 354 l 1
 74 9 l 2
 72 2 70 0 63 0 c 2
 -32 0 l 2
 -39 0 -41 2 -39 9 c 2
 280 1391 l 2
 282 1398 284 1400 291 1400 c 2
 386 1400 l 2
 393 1400 395 1398 393 1391 c 2
 334 1136 l 1
 353 1136 l 2
172 435 m 1
 191 435 l 2
 254 435 285 484 311 595 c 2
 379 889 l 2
 405 1000 396 1049 333 1049 c 2
 314 1049 l 1
 172 435 l 1
EndSplineSet
EndChar

StartChar: divide
Encoding: 247 247 391
Width: 581
VWidth: 2048
Flags: HW
LayerCount: 2
Fore
SplineSet
43 656 m 10
 60 729 l 18
 61 733 62 734 66 734 c 10
 613 734 l 18
 617 734 618 733 617 729 c 10
 600 656 l 18
 599 652 598 651 594 651 c 10
 47 651 l 18
 43 651 42 652 43 656 c 10
EndSplineSet
Refer: 1 46 S 1 0 0 1 346 927 2
Refer: 1 46 S 1 0 0 1 186 225 2
EndChar

StartChar: multiply
Encoding: 215 215 392
Width: 588
VWidth: 1920
Flags: HW
LayerCount: 2
Fore
SplineSet
498 569 m 10
 438 520 l 18
 436 518 433 518 431 520 c 10
 178 849 l 18
 176 851 178 854 180 856 c 10
 240 905 l 18
 242 907 245 907 247 905 c 10
 500 576 l 18
 502 574 500 571 498 569 c 10
151 520 m 10
 113 569 l 18
 111 571 113 574 115 576 c 10
 520 905 l 18
 522 907 525 907 527 905 c 10
 565 856 l 18
 567 854 565 851 563 849 c 10
 158 520 l 18
 156 518 153 518 151 520 c 10
EndSplineSet
EndChar

StartChar: Oslash
Encoding: 216 216 393
Width: 502
VWidth: 1920
Flags: HW
LayerCount: 2
Fore
SplineSet
556 1478 m 6
 582 1471 l 6
 584 1470 583 1467 582 1464 c 6
 6 -76 l 6
 5 -79 2 -79 -1 -78 c 6
 -26 -71 l 6
 -29 -70 -28 -67 -27 -64 c 6
 549 1476 l 6
 550 1479 552 1479 556 1478 c 6
EndSplineSet
Refer: 26 79 N 1 0 0 1 0 0 2
EndChar

StartChar: oslash
Encoding: 248 248 394
Width: 418
VWidth: 1920
Flags: HW
LayerCount: 2
Fore
SplineSet
464 1198 m 6
 489 1191 l 6
 491 1190 490 1187 489 1184 c 6
 -22 -76 l 6
 -23 -79 -26 -79 -29 -78 c 6
 -54 -71 l 6
 -57 -70 -56 -67 -55 -64 c 6
 456 1196 l 6
 457 1199 460 1199 464 1198 c 6
EndSplineSet
Refer: 52 111 N 1 0 0 1 0 0 2
EndChar

StartChar: germandbls
Encoding: 223 223 396
Width: 482
VWidth: 1920
Flags: HW
LayerCount: 2
Fore
SplineSet
216 1192 m 2
 256 1366 311 1484 424 1484 c 0
 554 1484 561 1370 525 1212 c 0
 481 1020 435 951 407 830 c 0
 358 618 456 573 396 313 c 0
 345 91 264 -33 112 -33 c 0
 108 -33 107 -32 109 -24 c 2
 130 63 l 2
 132 71 133 73 137 73 c 0
 191 74 245 135 286 311 c 0
 341 549 239 574 299 834 c 0
 332 978 386 1082 415 1208 c 0
 439 1314 441 1388 407 1388 c 0
 374 1388 352 1298 323 1171 c 2
 55 9 l 2
 53 2 52 0 48 0 c 2
 -54 0 l 2
 -58 0 -59 2 -57 9 c 2
 216 1192 l 2
EndSplineSet
EndChar

StartChar: eth
Encoding: 240 240 397
Width: 425
VWidth: 1920
Flags: HW
LayerCount: 2
Fore
SplineSet
340 1221 m 10
 325 1260 l 18
 324 1263 326 1264 329 1266 c 10
 565 1401 l 18
 568 1403 571 1402 572 1399 c 10
 587 1362 l 18
 588 1359 586 1358 583 1356 c 10
 345 1219 l 18
 342 1217 341 1218 340 1221 c 10
310 982 m 0
 259 982 234 897 210 793 c 2
 84 249 l 2
 60 147 56 68 112 68 c 0
 167 68 196 155 215 237 c 2
 362 873 l 2
 445 1232 429 1357 302 1417 c 0
 297 1419 297 1421 300 1425 c 2
 354 1488 l 2
 357 1492 358 1493 364 1491 c 0
 537 1417 552 1212 493 956 c 2
 334 269 l 2
 299 117 243 -17 87 -17 c 0
 -50 -17 -66 90 -34 229 c 2
 99 807 l 2
 131 944 177 1067 290 1067 c 0
 380 1067 408 952 386 855 c 1
 337 766 l 1
 350 825 l 2
 371 915 352 982 310 982 c 0
EndSplineSet
EndChar

StartChar: dcroat
Encoding: 273 273 398
Width: 441
VWidth: 1920
Flags: HW
LayerCount: 2
Fore
SplineSet
341 1196 m 14
 358 1271 l 22
 359 1275 360 1276 364 1276 c 14
 650 1276 l 22
 654 1276 653 1275 652 1271 c 14
 635 1196 l 22
 634 1192 634 1191 630 1191 c 14
 344 1191 l 22
 340 1191 340 1192 341 1196 c 14
EndSplineSet
Refer: 41 100 N 1 0 0 1 0 0 2
EndChar

StartChar: Hbar
Encoding: 294 294 399
Width: 505
VWidth: 1920
Flags: HW
LayerCount: 2
Fore
SplineSet
139 1083 m 14
 155 1152 l 22
 156 1156 157 1157 161 1157 c 14
 638 1157 l 22
 642 1157 643 1156 642 1152 c 14
 626 1083 l 22
 625 1079 624 1078 620 1078 c 14
 143 1078 l 22
 139 1078 138 1079 139 1083 c 14
EndSplineSet
Refer: 19 72 N 1 0 0 1 0 0 2
EndChar

StartChar: hbar
Encoding: 295 295 400
Width: 426
VWidth: 1920
Flags: HW
LayerCount: 2
Fore
SplineSet
165 1225 m 14
 181 1294 l 22
 182 1298 182 1299 186 1299 c 14
 438 1299 l 22
 442 1299 442 1298 441 1294 c 14
 425 1225 l 22
 424 1221 424 1220 420 1220 c 14
 168 1220 l 22
 164 1220 164 1221 165 1225 c 14
EndSplineSet
Refer: 45 104 N 1 0 0 1 0 0 2
EndChar

StartChar: Lslash
Encoding: 321 321 405
Width: 349
VWidth: 1920
Flags: HW
LayerCount: 2
Fore
SplineSet
361 965 m 6
 370 939 l 6
 371 936 369 934 366 932 c 6
 80 786 l 6
 77 784 75 785 74 788 c 6
 65 814 l 6
 64 817 66 819 69 821 c 6
 354 967 l 6
 357 969 360 968 361 965 c 6
EndSplineSet
Refer: 23 76 N 1 0 0 1 0 0 2
EndChar

StartChar: lslash
Encoding: 322 322 406
Width: 233
VWidth: 1920
Flags: HW
LayerCount: 2
Fore
SplineSet
351 965 m 6
 360 939 l 6
 361 936 359 934 356 932 c 6
 69 786 l 6
 66 784 64 785 63 788 c 6
 54 814 l 6
 53 817 55 819 58 821 c 6
 344 967 l 6
 347 969 350 968 351 965 c 6
EndSplineSet
Refer: 49 108 N 1 0 0 1 0 0 2
EndChar

StartChar: eng
Encoding: 331 331 408
Width: 409
VWidth: 960
Flags: HW
LayerCount: 2
Fore
SplineSet
179 1050 m 2
 278 1050 l 2
 282 1050 282 1049 281 1045 c 2
 256 934 l 1
 259 921 l 1
 47 5 l 2
 46 1 44 0 40 0 c 2
 -63 0 l 2
 -67 0 -69 1 -68 5 c 2
 172 1045 l 2
 173 1049 175 1050 179 1050 c 2
229 -65 m 2
 203 -178 177 -221 23 -198 c 0
 19 -197 19 -196 20 -192 c 2
 34 -128 l 2
 35 -125 36 -123 40 -124 c 0
 92 -133 103 -116 118 -52 c 2
 337 898 l 2
 351 957 351 990 319 990 c 0
 283 990 261 933 237 828 c 1
 231 877 l 1
 257 988 296 1067 381 1067 c 0
 459 1067 477 1008 452 901 c 2
 229 -65 l 2
EndSplineSet
EndChar

StartChar: Eng
Encoding: 330 330 409
Width: 502
VWidth: 960
Flags: HW
LayerCount: 2
Fore
SplineSet
544 1400 m 2
 632 1400 l 2
 636 1400 637 1399 636 1395 c 1
 299 -65 l 2
 273 -178 247 -221 93 -198 c 0
 89 -197 89 -196 90 -192 c 2
 104 -128 l 2
 105 -125 106 -123 110 -124 c 0
 162 -133 173 -116 188 -52 c 2
 250 217 l 1
 292 1065 l 1
 47 5 l 2
 46 1 45 0 41 0 c 2
 -46 0 l 2
 -50 0 -51 1 -50 5 c 2
 271 1395 l 2
 272 1399 273 1400 277 1400 c 2
 387 1400 l 2
 391 1400 393 1399 395 1395 c 2
 345 559 l 1
 538 1395 l 2
 539 1399 540 1400 544 1400 c 2
EndSplineSet
EndChar

StartChar: oe
Encoding: 339 339 410
Width: 636
VWidth: 960
Flags: HW
LayerCount: 2
Fore
SplineSet
-29 230 m 2
 108 821 l 2
 143 972 199 1067 328 1067 c 0
 462 1067 451 972 416 821 c 2
 279 230 l 2
 244 79 212 -18 78 -18 c 0
 -51 -18 -64 79 -29 230 c 2
81 209 m 2
 60 118 52 57 102 57 c 0
 152 57 171 118 192 209 c 2
 338 841 l 2
 359 932 368 994 318 994 c 0
 268 994 248 932 227 841 c 2
 81 209 l 2
574 410 m 0
 496 101 462 -18 310 -18 c 0
 171 -18 189 69 226 230 c 2
 363 821 l 2
 399 977 433 1067 567 1067 c 0
 697 1067 700 972 676 851 c 0
 650 722 630 634 598 495 c 0
 598 493 596 491 592 491 c 2
 331 491 l 1
 346 554 l 1
 501 554 l 1
 586 933 600 994 543 994 c 0
 498 994 478 940 455 841 c 2
 309 209 l 2
 285 103 282 57 326 57 c 0
 375 57 397 117 470 412 c 0
 470 414 473 415 477 415 c 2
 571 415 l 2
 575 415 575 413 574 410 c 0
EndSplineSet
EndChar

StartChar: OE
Encoding: 338 338 411
Width: 675
VWidth: 1920
Flags: HW
LayerCount: 2
Fore
SplineSet
480 1400 m 6
 625 1400 l 6
 629 1400 631 1399 630 1395 c 6
 309 5 l 6
 308 1 306 0 302 0 c 6
 157 0 l 6
 -19 0 -45 124 15 382 c 6
 164 1026 l 6
 224 1284 284 1400 480 1400 c 6
457 1312 m 6
 373 1312 332 1237 284 1031 c 6
 133 378 l 6
 85 172 90 88 174 88 c 6
 214 88 l 5
 497 1312 l 5
 457 1312 l 6
EndSplineSet
Refer: 16 69 N 1 0 0 1 235 0 2
EndChar

StartChar: Tbar
Encoding: 358 358 413
Width: 405
VWidth: 1920
Flags: HW
LayerCount: 2
Fore
SplineSet
31 660 m 14
 46 723 l 22
 47 727 49 728 53 728 c 14
 434 728 l 22
 438 728 440 727 439 723 c 14
 424 660 l 22
 423 656 421 655 417 655 c 14
 36 655 l 22
 32 655 30 656 31 660 c 14
EndSplineSet
Refer: 31 84 N 1 0 0 1 0 0 2
EndChar

StartChar: tbar
Encoding: 359 359 414
Width: 287
VWidth: 1920
Flags: HW
LayerCount: 2
Fore
SplineSet
31 590 m 14
 46 653 l 22
 47 657 48 658 52 658 c 14
 287 658 l 22
 291 658 292 657 291 653 c 14
 276 590 l 22
 275 586 274 585 270 585 c 14
 35 585 l 22
 31 585 30 586 31 590 c 14
EndSplineSet
Refer: 57 116 N 1 0 0 1 0 0 2
EndChar

StartChar: florin
Encoding: 402 402 415
Width: 233
VWidth: 960
Flags: HW
LayerCount: 2
Fore
SplineSet
335 974 m 2xd0
 158 974 l 2
 151 974 148 977 150 984 c 2
 163 1040 l 2
 165 1047 168 1050 175 1050 c 2
 352 1050 l 2
 359 1050 361 1047 359 1040 c 2
 346 984 l 2
 344 977 342 974 335 974 c 2xd0
225 1145 m 2
 274 1357 331 1457 430 1457 c 0
 549 1457 500 1286 465 1193 c 0
 463 1188 460 1186 453 1186 c 2
 407 1186 l 2
 400 1186 397 1189 399 1193 c 0
 435 1287 444 1370 424 1370 c 0
 406 1370 368 1271 339 1146 c 2
 306 1006 l 2
 304 999 301 996 294 996 c 2
 200 996 l 2
 193 996 190 999 192 1006 c 2
 225 1145 l 2
60 -59 m 2
 11 -271 -46 -371 -145 -371 c 0
 -264 -371 -215 -200 -180 -107 c 0
 -178 -102 -175 -100 -168 -100 c 2
 -122 -100 l 2
 -115 -100 -112 -103 -114 -107 c 0
 -150 -201 -159 -284 -139 -284 c 0
 -121 -284 -83 -185 -54 -60 c 2
 195 1020 l 2
 197 1027 200 1030 207 1030 c 2
 301 1030 l 2
 308 1030 311 1027 309 1020 c 2
 60 -59 l 2
EndSplineSet
EndChar

StartChar: uni0394
Encoding: 916 916 430
Width: 455
VWidth: 960
Flags: HW
LayerCount: 2
Fore
SplineSet
-99 0 m 2
 -103 0 -103 2 -101 5 c 2
 352 1395 l 2
 354 1398 355 1400 359 1400 c 2
 493 1400 l 2
 497 1400 498 1398 498 1395 c 2
 319 5 l 2
 319 2 319 0 315 0 c 2
 -99 0 l 2
22 81 m 1
 211 81 l 1
 384 1250 l 1
 22 81 l 1
EndSplineSet
EndChar

StartChar: uni03A9
Encoding: 937 937 431
Width: 556
VWidth: 1920
Flags: HW
LayerCount: 2
Fore
SplineSet
196 98 m 0
 286 200 313 310 354 488 c 2
 484 1053 l 2
 527 1238 535 1334 440 1334 c 0
 345 1334 309 1238 266 1053 c 2
 136 488 l 2
 95 310 71 200 115 98 c 0
 118 92 121 94 120 88 c 2
 101 5 l 2
 100 1 100 0 96 0 c 2
 -88 0 l 2
 -92 0 -94 1 -93 5 c 2
 -75 84 l 2
 -74 88 -71 90 -67 90 c 2
 40 90 l 1
 -18 203 -21 326 22 512 c 2
 147 1054 l 2
 202 1291 274 1417 459 1417 c 0
 644 1417 658 1291 603 1054 c 2
 478 512 l 2
 435 326 373 203 265 90 c 1
 373 90 l 2
 377 90 376 88 375 84 c 2
 357 5 l 2
 356 1 356 0 352 0 c 2
 169 0 l 2
 165 0 163 1 164 5 c 2
 183 88 l 2
 184 94 189 91 196 98 c 0
EndSplineSet
EndChar

StartChar: pi
Encoding: 960 960 432
Width: 473
VWidth: 1920
Flags: HW
LayerCount: 2
Fore
SplineSet
301 1020 m 2
 67 5 l 2
 66 1 65 0 61 0 c 2
 -43 0 l 2
 -47 0 -48 1 -47 5 c 2
 187 1020 l 2
 188 1024 190 1025 194 1025 c 2
 298 1025 l 2
 302 1025 302 1024 301 1020 c 2
360 72 m 2
 344 5 l 2
 343 1 343 -1 339 -1 c 0
 178 -21 142 22 167 132 c 2
 369 1006 l 2
 370 1010 371 1011 375 1011 c 2
 476 1011 l 2
 480 1011 482 1010 481 1006 c 2
 282 145 l 2
 267 82 283 68 357 77 c 0
 360 77 361 75 360 72 c 2
113 965 m 10
 131 1045 l 18
 132 1049 133 1050 137 1050 c 10
 556 1050 l 18
 560 1050 561 1049 560 1045 c 10
 542 965 l 18
 541 961 540 960 536 960 c 10
 117 960 l 18
 113 960 112 961 113 965 c 10
EndSplineSet
EndChar

StartChar: minute
Encoding: 8242 8242 433
Width: 221
VWidth: 1920
Flags: HW
LayerCount: 2
Fore
SplineSet
157 930 m 2
 125 930 l 2
 121 930 121 934 123 940 c 2
 287 1410 l 2
 290 1417 291 1420 295 1420 c 2
 404 1420 l 2
 408 1420 409 1416 406 1410 c 2
 167 940 l 2
 165 934 161 930 157 930 c 2
EndSplineSet
EndChar

StartChar: Euro
Encoding: 8364 8364 435
Width: 511
VWidth: 1920
Flags: HW
LayerCount: 2
Fore
SplineSet
-20 576 m 10
 -7 634 l 18
 -6 638 -4 639 -0 639 c 10
 293 639 l 18
 297 639 297 638 296 634 c 10
 283 576 l 18
 282 572 281 571 277 571 c 10
 -16 571 l 18
 -20 571 -21 572 -20 576 c 10
20 751 m 10
 34 809 l 18
 35 813 36 814 40 814 c 10
 333 814 l 18
 337 814 338 813 337 809 c 10
 323 751 l 18
 322 747 321 746 317 746 c 10
 24 746 l 18
 20 746 19 747 20 751 c 10
413 366 m 0
 377 210 319 -18 114 -18 c 0
 -59 -18 -43 127 10 358 c 2
 168 1042 l 2
 225 1290 298 1418 450 1418 c 0
 649 1418 613 1256 580 1114 c 0
 579 1110 578 1110 574 1110 c 2
 487 1110 l 2
 483 1110 482 1110 483 1114 c 0
 514 1254 513 1323 440 1323 c 0
 367 1323 330 1231 287 1046 c 2
 127 349 l 2
 89 183 70 77 144 77 c 0
 220 77 274 191 315 366 c 0
 316 370 317 370 321 370 c 2
 409 370 l 2
 413 370 414 370 413 366 c 0
EndSplineSet
EndChar

StartChar: uni2116
Encoding: 8470 8470 436
Width: 799
VWidth: 1920
Flags: HW
LayerCount: 2
Fore
SplineSet
387 5 m 10
 404 78 l 18
 405 82 405 83 409 83 c 10
 648 83 l 18
 652 83 653 82 652 78 c 10
 635 5 l 18
 634 1 633 0 629 0 c 10
 390 0 l 18
 386 0 386 1 387 5 c 10
EndSplineSet
Refer: 132 8304 S 1 0 0 1 389 -295 2
Refer: 25 78 N 1 0 0 1 0 0 2
EndChar

StartChar: trademark
Encoding: 8482 8482 437
Width: 682
VWidth: 1920
Flags: HW
LayerCount: 2
Fore
SplineSet
242 1400 m 2
 476 1400 l 2
 478 1400 479 1398 478 1394 c 2
 465 1340 l 2
 464 1336 463 1334 461 1334 c 2
 382 1334 l 1
 205 566 l 2
 204 562 203 560 201 560 c 2
 129 560 l 2
 127 560 128 562 129 566 c 2
 306 1334 l 1
 227 1334 l 2
 225 1334 224 1336 225 1340 c 2
 238 1394 l 2
 239 1398 240 1400 242 1400 c 2
562 1275 m 1
 399 566 l 2
 398 562 396 560 394 560 c 2
 339 560 l 2
 337 560 337 562 338 566 c 2
 529 1394 l 2
 530 1398 531 1400 533 1400 c 2
 627 1400 l 2
 629 1400 630 1398 630 1394 c 2
 569 854 l 1
 751 1394 l 2
 753 1398 754 1400 756 1400 c 2
 846 1400 l 2
 848 1400 849 1398 848 1394 c 2
 657 566 l 2
 656 562 654 560 652 560 c 2
 587 560 l 2
 585 560 585 562 586 566 c 2
 737 1221 l 1
 512 566 l 2
 510 562 508 560 506 560 c 2
 480 560 l 2
 478 560 478 562 478 566 c 2
 562 1275 l 1
EndSplineSet
EndChar

StartChar: partialdiff
Encoding: 8706 8706 438
Width: 450
VWidth: 1920
Flags: HW
LayerCount: 2
Fore
SplineSet
280 802 m 0
 226 802 209 749 189 664 c 2
 82 200 l 2
 63 116 61 70 120 70 c 0
 177 70 203 154 222 235 c 2
 351 792 l 2
 441 1184 430 1323 303 1383 c 0
 298 1385 298 1386 301 1390 c 2
 351 1451 l 2
 354 1455 354 1456 361 1454 c 0
 537 1381 555 1195 453 755 c 2
 341 268 l 2
 306 116 259 -18 96 -18 c 0
 -43 -18 -65 53 -35 185 c 2
 77 671 l 2
 107 801 148 886 263 886 c 0
 379 886 387 821 365 724 c 1
 315 635 l 1
 328 693 l 2
 348 778 330 802 280 802 c 0
EndSplineSet
EndChar

StartChar: summation
Encoding: 8721 8721 439
Width: 450
VWidth: 1920
Flags: HW
LayerCount: 2
Fore
SplineSet
367 506 m 2
 0 -259 l 1
 222 -259 l 2
 226 -259 226 -262 224 -269 c 2
 205 -351 l 2
 203 -358 203 -360 199 -360 c 2
 -164 -360 l 2
 -168 -360 -168 -358 -163 -351 c 2
 263 520 l 1
 239 1391 l 2
 238 1398 238 1400 242 1400 c 2
 605 1400 l 2
 609 1400 609 1398 607 1391 c 2
 588 1309 l 2
 586 1302 586 1299 582 1299 c 2
 360 1299 l 1
 373 534 l 2
 374 523 374 517 367 506 c 2
EndSplineSet
EndChar

StartChar: minus
Encoding: 8722 8722 440
Width: 584
Flags: HW
LayerCount: 2
Fore
SplineSet
1 243 m 10
 20 323 l 18
 21 327 22 328 26 328 c 10
 471 328 l 18
 475 328 476 327 475 323 c 10
 456 243 l 18
 455 239 454 238 450 238 c 10
 5 238 l 18
 1 238 0 239 1 243 c 10
EndSplineSet
EndChar

StartChar: integral
Encoding: 8747 8747 441
Width: 256
VWidth: 960
Flags: HW
LayerCount: 2
Fore
SplineSet
39 -65 m 2
 13 -178 -13 -221 -166 -198 c 0
 -170 -197 -170 -196 -169 -192 c 2
 -155 -128 l 2
 -154 -125 -153 -123 -149 -124 c 0
 -97 -133 -85 -116 -70 -52 c 2
 250 1334 l 2
 274 1440 307 1477 433 1461 c 0
 438 1460 439 1459 438 1455 c 2
 423 1391 l 2
 422 1388 420 1385 414 1387 c 0
 382 1395 372 1378 358 1318 c 2
 39 -65 l 2
EndSplineSet
EndChar

StartChar: radical
Encoding: 8730 8730 443
Width: 468
VWidth: 1920
Flags: HMW
LayerCount: 2
Fore
SplineSet
339 1050 m 2
 343 1050 344 1046 344 1040 c 2
 243 339 l 1
 583 1591 l 2
 585 1598 586 1600 590 1600 c 2
 683 1600 l 2
 687 1600 688 1597 686 1591 c 2
 143 -144 l 2
 140 -151 140 -152 140 -144 c 2
 250 949 l 1
 179 949 l 2
 175 949 174 952 176 959 c 2
 195 1040 l 2
 197 1047 198 1050 202 1050 c 2
 339 1050 l 2
EndSplineSet
EndChar

StartChar: infinity
Encoding: 8734 8734 444
Width: 698
VWidth: 1414
Flags: HMW
LayerCount: 2
Fore
SplineSet
182 483 m 0
 81 483 41 568 63 665 c 0
 85 762 164 845 265 845 c 0
 346 845 382 791 395 715 c 1
 444 791 503 845 584 845 c 0
 685 845 725 762 703 665 c 0
 681 568 602 483 501 483 c 0
 420 483 375 537 372 614 c 1
 322 537 263 483 182 483 c 0
214 568 m 0
 257 568 305 606 346 665 c 1
 334 723 302 762 259 762 c 0
 210 762 168 726 154 665 c 0
 140 605 165 568 214 568 c 0
507 568 m 0
 556 568 598 605 612 665 c 0
 626 726 601 762 552 762 c 0
 510 762 460 723 422 665 c 1
 424 607 465 568 507 568 c 0
EndSplineSet
EndChar

StartChar: product
Encoding: 8719 8719 445
Width: 591
VWidth: 1920
Flags: HW
LayerCount: 2
Fore
SplineSet
719 1400 m 2
 723 1400 724 1398 722 1391 c 2
 403 9 l 2
 401 2 400 0 396 0 c 2
 292 0 l 2
 288 0 288 2 290 9 c 2
 588 1299 l 1
 364 1299 l 1
 66 9 l 2
 64 2 63 0 59 0 c 2
 -45 0 l 2
 -49 0 -50 2 -48 9 c 2
 271 1391 l 18
 273 1398 274 1400 278 1400 c 10
 719 1400 l 2
EndSplineSet
EndChar

StartChar: uni2219
Encoding: 8729 8729 446
Width: 270
Flags: HW
LayerCount: 2
Fore
SplineSet
91 675 m 4
 91 722 123 755 170 755 c 4
 217 755 250 722 250 675 c 4
 250 628 220 595 173 595 c 4
 126 595 91 628 91 675 c 4
EndSplineSet
EndChar

StartChar: approxequal
Encoding: 8776 8776 447
Width: 583
VWidth: 1298
Flags: HW
LayerCount: 2
Fore
SplineSet
220 580 m 0
 179 580 160 552 154 536 c 0
 153 533 151 532 148 532 c 2
 77 532 l 2
 73 532 71 533 72 536 c 0
 91 608 160 669 234 669 c 0
 321 669 335 608 398 608 c 0
 439 608 458 635 464 651 c 0
 465 654 467 656 470 656 c 2
 541 656 l 2
 545 656 546 655 545 651 c 0
 526 579 460 518 385 518 c 0
 298 518 293 580 220 580 c 0
177 393 m 0
 136 393 117 366 111 350 c 0
 110 347 108 345 105 345 c 2
 34 345 l 2
 30 345 28 347 29 350 c 0
 48 422 117 482 191 482 c 0
 278 482 292 422 355 422 c 0
 396 422 415 448 421 464 c 0
 422 467 425 470 428 470 c 2
 499 470 l 2
 503 470 503 468 502 464 c 0
 483 392 420 332 345 332 c 0
 258 332 250 393 177 393 c 0
EndSplineSet
EndChar

StartChar: notequal
Encoding: 8800 8800 448
Width: 537
VWidth: 1920
Flags: HW
LayerCount: 2
Fore
SplineSet
483 736 m 2
 504 715 l 2
 506 713 506 710 504 708 c 2
 80 262 l 2
 78 260 76 260 74 262 c 2
 52 284 l 2
 50 286 50 288 52 290 c 2
 476 736 l 2
 478 738 481 738 483 736 c 2
EndSplineSet
Refer: 83 61 S 1 0 0 1 0 0 2
EndChar

StartChar: lessequal
Encoding: 8804 8804 449
Width: 517
VWidth: 1920
Flags: HW
LayerCount: 2
Fore
SplineSet
18 350 m 14
 36 427 l 22
 37 431 38 432 42 432 c 14
 430 432 l 22
 434 432 435 431 434 427 c 14
 416 350 l 22
 415 346 414 345 410 345 c 14
 22 345 l 22
 18 345 17 346 18 350 c 14
EndSplineSet
Refer: 84 60 N 1 0 0 1 5 160 2
EndChar

StartChar: greaterequal
Encoding: 8805 8805 450
Width: 517
VWidth: 1920
Flags: HW
LayerCount: 2
Fore
SplineSet
16 350 m 14
 34 427 l 22
 35 431 36 432 40 432 c 14
 428 432 l 22
 432 432 433 431 432 427 c 14
 414 350 l 22
 413 346 412 345 408 345 c 14
 20 345 l 22
 16 345 15 346 16 350 c 14
EndSplineSet
Refer: 85 62 N 1 0 0 1 -5 160 2
EndChar

StartChar: lozenge
Encoding: 9674 9674 451
Width: 641
Flags: HW
LayerCount: 2
Fore
SplineSet
215 40 m 2
 115 702 l 2
 113 710 114 714 120 722 c 2
 525 1382 l 2
 532 1391 534 1392 537 1382 c 2
 615 722 l 2
 617 714 616 710 610 702 c 2
 227 40 l 2
 220 30 218 31 215 40 c 2
281 323 m 1
 494 712 l 1
 460 1101 l 1
 235 712 l 1
 281 323 l 1
EndSplineSet
EndChar

StartChar: uniF8EA
Encoding: 63722 63722 452
Width: 553
VWidth: 1582
Flags: HW
LayerCount: 2
Fore
SplineSet
242 1400 m 2
 439 1400 l 2
 440 1400 441 1399 441 1398 c 2
 433 1365 l 2
 433 1364 432 1363 431 1363 c 2
 355 1363 l 1
 305 1150 l 2
 305 1149 304 1148 303 1148 c 2
 261 1148 l 2
 260 1148 259 1149 259 1150 c 2
 309 1363 l 1
 234 1363 l 2
 233 1363 232 1364 232 1365 c 2
 240 1398 l 2
 240 1399 241 1400 242 1400 c 2
496 1345 m 1
 450 1150 l 2
 450 1149 449 1148 448 1148 c 2
 414 1148 l 2
 413 1148 412 1149 412 1150 c 2
 470 1398 l 2
 470 1399 471 1400 472 1400 c 2
 529 1400 l 2
 530 1400 531 1399 531 1398 c 2
 559 1230 l 1
 667 1398 l 2
 667 1399 668 1400 669 1400 c 2
 717 1400 l 2
 718 1400 719 1399 719 1398 c 2
 661 1150 l 2
 661 1149 660 1148 659 1148 c 2
 621 1148 l 2
 620 1148 619 1149 619 1150 c 2
 661 1330 l 1
 546 1150 l 2
 546 1149 545 1148 544 1148 c 2
 528 1148 l 2
 527 1148 525 1149 525 1150 c 2
 496 1345 l 1
EndSplineSet
EndChar

StartChar: uniF8E8
Encoding: 63720 63720 453
Width: 492
VWidth: 1569
Flags: HW
LayerCount: 2
Fore
SplineSet
373 1312 m 1
 354 1231 l 1
 419 1231 l 2
 448 1231 466 1243 471 1264 c 2
 474 1278 l 2
 479 1299 467 1312 438 1312 c 2
 373 1312 l 1
447 1342 m 2
 496 1342 526 1320 516 1277 c 2
 515 1273 l 2
 505 1230 464 1210 416 1210 c 1
 419 1222 l 1
 467 1222 499 1208 489 1165 c 2
 485 1150 l 2
 480 1130 483 1114 488 1102 c 0
 490 1100 488 1099 488 1098 c 2
 487 1092 l 2
 487 1090 488 1090 486 1090 c 2
 446 1090 l 2
 444 1090 444 1090 443 1092 c 0
 437 1110 440 1134 444 1150 c 2
 449 1170 l 2
 454 1191 442 1203 413 1203 c 2
 348 1203 l 1
 322 1092 l 2
 322 1090 322 1090 320 1090 c 2
 283 1090 l 2
 281 1090 281 1090 281 1092 c 2
 338 1340 l 2
 338 1342 339 1342 341 1342 c 2
 447 1342 l 2
614 1207 m 0
 587 1092 471 999 356 999 c 0
 241 999 169 1092 196 1207 c 0
 223 1322 337 1417 452 1417 c 0
 567 1417 641 1322 614 1207 c 0
588 1207 m 0
 612 1309 548 1391 446 1391 c 0
 344 1391 246 1309 222 1207 c 0
 198 1105 260 1025 362 1025 c 0
 464 1025 564 1105 588 1207 c 0
EndSplineSet
EndChar

StartChar: uniF8E9
Encoding: 63721 63721 454
Width: 492
VWidth: 1569
Flags: HW
LayerCount: 2
Fore
SplineSet
501 1174 m 0
 485 1121 440 1076 372 1076 c 0
 300 1076 274 1125 290 1193 c 2
 297 1223 l 2
 313 1291 362 1341 434 1341 c 0
 502 1341 522 1300 514 1255 c 0
 514 1253 514 1253 512 1253 c 2
 480 1253 l 2
 478 1253 479 1253 479 1255 c 0
 486 1287 466 1310 429 1310 c 0
 385 1310 352 1272 341 1225 c 2
 333 1191 l 2
 322 1144 334 1106 382 1106 c 0
 422 1106 457 1137 466 1174 c 0
 466 1176 466 1175 468 1175 c 2
 499 1175 l 2
 501 1175 501 1176 501 1174 c 0
614 1207 m 0
 587 1092 471 999 356 999 c 0
 241 999 169 1092 196 1207 c 0
 223 1322 337 1417 452 1417 c 0
 567 1417 641 1322 614 1207 c 0
588 1207 m 0
 612 1309 548 1391 446 1391 c 0
 344 1391 246 1309 222 1207 c 0
 198 1105 260 1025 362 1025 c 0
 464 1025 564 1105 588 1207 c 0
EndSplineSet
EndChar

StartChar: uni1E9E
Encoding: 7838 7838 457
Width: 555
VWidth: 1920
Flags: HW
LayerCount: 2
Fore
SplineSet
212 1097 m 2
 260 1303 328 1417 482 1417 c 0
 611 1417 619 1294 623 1164 c 0
 623 1153 622 1145 618 1136 c 2
 440 715 l 1
 479 643 529 570 477 343 c 0
 425 119 337 -18 226 -18 c 0
 177 -18 145 27 141 78 c 0
 140 90 137 116 138 122 c 2
 164 232 l 2
 167 246 178 242 181 223 c 0
 185 177 194 104 231 104 c 0
 283 104 324 171 364 346 c 0
 409 539 383 597 317 667 c 0
 311 674 309 671 316 680 c 2
 515 1145 l 1
 525 1240 517 1334 463 1334 c 0
 388 1334 361 1261 324 1101 c 2
 71 5 l 2
 70 1 69 0 65 0 c 2
 -36 0 l 2
 -40 0 -41 1 -40 5 c 2
 212 1097 l 2
EndSplineSet
EndChar
